<svg xmlns="http://www.w3.org/2000/svg" width="220" height="220" viewBox="0 0 220 220">
  <g id="Group_20359" data-name="Group 20359" transform="translate(-220 -2595)">
    <rect id="Rectangle_7903" data-name="Rectangle 7903" width="220" height="220" transform="translate(220 2595)" fill="none"/>
    <g id="Exams-rafiki" transform="translate(225.688 2627.276)">
      <g id="freepik--background-complete--inject-2" transform="translate(0 0)">
        <rect id="Rectangle_7885" data-name="Rectangle 7885" width="208.622" height="0.104" transform="translate(0 136.606)" fill="#ebebeb"/>
        <rect id="Rectangle_7886" data-name="Rectangle 7886" width="13.819" height="0.104" transform="translate(173.899 143.319)" fill="#ebebeb"/>
        <rect id="Rectangle_7887" data-name="Rectangle 7887" width="3.626" height="0.104" transform="translate(134.574 144.454)" fill="#ebebeb"/>
        <rect id="Rectangle_7888" data-name="Rectangle 7888" width="8.007" height="0.104" transform="translate(165.475 139.447)" fill="#ebebeb"/>
        <rect id="Rectangle_7889" data-name="Rectangle 7889" width="18.021" height="0.104" transform="translate(21.889 140.148)" fill="#ebebeb"/>
        <rect id="Rectangle_7890" data-name="Rectangle 7890" width="2.641" height="0.104" transform="translate(43.627 140.148)" fill="#ebebeb"/>
        <rect id="Rectangle_7891" data-name="Rectangle 7891" width="39.087" height="0.104" transform="translate(54.855 141.909)" fill="#ebebeb"/>
        <path id="Path_37191" data-name="Path 37191" d="M121.154,173H40.588a2.382,2.382,0,0,1-2.378-2.382V57.362A2.382,2.382,0,0,1,40.588,55h80.566a2.382,2.382,0,0,1,2.382,2.382V170.614A2.382,2.382,0,0,1,121.154,173ZM40.588,55.083a2.278,2.278,0,0,0-2.274,2.278V170.614a2.278,2.278,0,0,0,2.274,2.278h80.566a2.282,2.282,0,0,0,2.278-2.278V57.362a2.282,2.282,0,0,0-2.278-2.278Z" transform="translate(-22.267 -55)" fill="#ebebeb"/>
        <path id="Path_37192" data-name="Path 37192" d="M337.452,173h-80.57a2.387,2.387,0,0,1-2.382-2.382V57.362A2.387,2.387,0,0,1,256.882,55h80.57a2.383,2.383,0,0,1,2.374,2.362V170.614A2.382,2.382,0,0,1,337.452,173ZM256.882,55.083a2.282,2.282,0,0,0-2.278,2.278V170.614a2.282,2.282,0,0,0,2.278,2.278h80.57a2.282,2.282,0,0,0,2.278-2.278V57.362a2.282,2.282,0,0,0-2.278-2.278Z" transform="translate(-148.311 -55)" fill="#ebebeb"/>
        <path id="Path_37193" data-name="Path 37193" d="M391.369,286.369s-3.2-6.259.459-12.459,4.723-7.644,2.387-8.912-3.4,4.949-3.4,4.949a12.645,12.645,0,0,1-.342-8.762c1.627-4.485,2.645-11.766.417-12.547s-.417,9.092-2.353,12.459a26.736,26.736,0,0,1-1.882-7.343c-.267-3.588.15-9.334-1.6-10.807s-2.879-.451-1.156,7.481a74.687,74.687,0,0,1,1.711,14.378S381.8,254.4,379.244,254.1s-2.549,3.067-.363,5.987,6.4,8.161,7.093,10.848c0,0-4.172-7.828-7.928-5.424s3.271,7.131,6.4,8.837,5.3,12.426,5.3,12.426Z" transform="translate(-219.681 -164.195)" fill="#e0e0e0"/>
        <path id="Path_37194" data-name="Path 37194" d="M399.34,292.439s3.125-6.317-.622-12.455-4.828-7.577-2.5-8.875,3.471,4.9,3.471,4.9a12.648,12.648,0,0,0,.225-8.762c-1.686-4.456-2.8-11.729-.592-12.538s.547,9.088,2.5,12.426a26.365,26.365,0,0,0,1.786-7.364c.217-3.609-.275-9.334,1.46-10.828s2.866-.492,1.252,7.46a74.965,74.965,0,0,0-1.519,14.4s3.668-10.456,6.217-10.794,2.591,3.033.442,5.983-6.292,8.245-6.947,10.948c0,0,4.072-7.886,7.861-5.537s-3.175,7.172-6.284,8.925-5.14,12.492-5.14,12.492Z" transform="translate(-230.185 -167.683)" fill="#e6e6e6"/>
        <path id="Path_37195" data-name="Path 37195" d="M403.9,343.19H378.11l2.086,16.556h21.622Z" transform="translate(-220.346 -222.944)" fill="#f0f0f0"/>
        <rect id="Rectangle_7892" data-name="Rectangle 7892" width="46.99" height="51.997" transform="translate(90.559 15.463)" fill="#e9e9e9"/>
        <rect id="Rectangle_7893" data-name="Rectangle 7893" width="42.167" height="47.667" transform="translate(93.5 17.95)" fill="#f4f4f4"/>
        <path id="Path_37196" data-name="Path 37196" d="M234.146,97,222,142.488V117.862L227.558,97Z" transform="translate(-129.372 -79.476)" fill="#fff"/>
        <path id="Path_37197" data-name="Path 37197" d="M242.855,97l-12.809,47.983H227.63L240.439,97Z" transform="translate(-132.653 -79.476)" fill="#fff"/>
        <path id="Path_37198" data-name="Path 37198" d="M312,128.36v24.63l-2.72,10.268H302.69Z" transform="translate(-176.394 -97.751)" fill="#fff"/>
        <rect id="Rectangle_7894" data-name="Rectangle 7894" width="1.669" height="51.997" transform="translate(113.219 15.463)" fill="#e9e9e9"/>
        <rect id="Rectangle_7895" data-name="Rectangle 7895" width="45.271" height="1.669" transform="translate(91.377 26.015)" fill="#e9e9e9"/>
        <rect id="Rectangle_7896" data-name="Rectangle 7896" width="46.99" height="51.997" transform="translate(26.303 15.463)" fill="#e9e9e9"/>
        <rect id="Rectangle_7897" data-name="Rectangle 7897" width="42.167" height="47.667" transform="translate(28.417 17.95)" fill="#f4f4f4"/>
        <path id="Path_37199" data-name="Path 37199" d="M80.146,97,68,142.488V117.862L73.558,97Z" transform="translate(-39.627 -79.476)" fill="#fff"/>
        <path id="Path_37200" data-name="Path 37200" d="M88.855,97,76.046,144.983H73.63L86.439,97Z" transform="translate(-42.908 -79.476)" fill="#fff"/>
        <path id="Path_37201" data-name="Path 37201" d="M158,128.36v24.63l-2.72,10.268H148.69Z" transform="translate(-86.65 -97.751)" fill="#fff"/>
        <rect id="Rectangle_7898" data-name="Rectangle 7898" width="1.669" height="51.997" transform="translate(48.964 15.463)" fill="#e9e9e9"/>
        <rect id="Rectangle_7899" data-name="Rectangle 7899" width="45.271" height="1.669" transform="translate(27.121 26.015)" fill="#e9e9e9"/>
      </g>
      <g id="freepik--Shadow--inject-2" transform="translate(23.412 146.002)">
        <ellipse id="freepik--path--inject-2" cx="80.9" cy="4.723" rx="80.9" ry="4.723" fill="#f5f5f5"/>
      </g>
      <g id="freepik--exams-sheet--inject-2" transform="translate(92.44 22.957)">
        <path id="Path_37202" data-name="Path 37202" d="M288.354,229.861H224.311a2.72,2.72,0,0,1-2.75-2.987L229.635,123.3a3.284,3.284,0,0,1,3.217-2.987h64.039a2.725,2.725,0,0,1,2.754,2.987l-8.074,103.577a3.288,3.288,0,0,1-3.217,2.988Z" transform="translate(-221.548 -116.016)" fill="#2e353a"/>
        <path id="Path_37203" data-name="Path 37203" d="M288.354,229.861H224.311a2.72,2.72,0,0,1-2.75-2.987L229.635,123.3a3.284,3.284,0,0,1,3.217-2.987h64.039a2.725,2.725,0,0,1,2.754,2.987l-8.074,103.577a3.288,3.288,0,0,1-3.217,2.988Z" transform="translate(-221.548 -116.016)" fill="#fff" opacity="0.2"/>
        <path id="Path_37204" data-name="Path 37204" d="M316.685,125.164H286.018a.951.951,0,0,1-.964-1.043l.472-6.054a1.152,1.152,0,0,1,1.127-1.047h30.667a.951.951,0,0,1,.96,1.047l-.471,6.038a1.147,1.147,0,0,1-1.122,1.06Z" transform="translate(-258.554 -114.099)" fill="#5a4bda"/>
        <path id="Path_37205" data-name="Path 37205" d="M316.685,125.164H286.018a.951.951,0,0,1-.964-1.043l.472-6.054a1.152,1.152,0,0,1,1.127-1.047h30.667a.951.951,0,0,1,.96,1.047l-.471,6.038a1.147,1.147,0,0,1-1.122,1.06Z" transform="translate(-258.554 -114.099)" opacity="0.2" style="mix-blend-mode: normal;isolation: isolate"/>
        <path id="Path_37206" data-name="Path 37206" d="M324.3,114.822h-4.8l.188-2.4a2.637,2.637,0,0,1,2.583-2.4h0a2.191,2.191,0,0,1,2.216,2.4Z" transform="translate(-278.63 -110.019)" fill="#5a4bda"/>
        <path id="Path_37207" data-name="Path 37207" d="M324.3,114.822h-4.8l.188-2.4a2.637,2.637,0,0,1,2.583-2.4h0a2.191,2.191,0,0,1,2.216,2.4Z" transform="translate(-278.63 -110.019)" fill="#fff" opacity="0.4"/>
        <path id="Path_37208" data-name="Path 37208" d="M293.494,231.572H231.85l7.869-100.9h61.64Z" transform="translate(-227.552 -122.054)" fill="#fff"/>
        <path id="Path_37209" data-name="Path 37209" d="M316.515,131.978H296.821a2.245,2.245,0,0,1-2.266-2.462l.25-3.2a2.708,2.708,0,0,1,2.65-2.462h19.7a2.249,2.249,0,0,1,2.27,2.462l-.25,3.2A2.716,2.716,0,0,1,316.515,131.978Zm-19.135-7.289a1.786,1.786,0,0,0-1.748,1.623l-.25,3.2a1.481,1.481,0,0,0,1.494,1.627h19.7a1.79,1.79,0,0,0,1.752-1.627l.25-3.2a1.485,1.485,0,0,0-1.5-1.623Z" transform="translate(-264.087 -118.079)" fill="#5a4bda"/>
        <g id="Group_19316" data-name="Group 19316" transform="translate(30.457 5.771)" opacity="0.4">
          <path id="Path_37210" data-name="Path 37210" d="M316.515,131.978H296.821a2.245,2.245,0,0,1-2.266-2.462l.25-3.2a2.708,2.708,0,0,1,2.65-2.462h19.7a2.249,2.249,0,0,1,2.27,2.462l-.25,3.2A2.716,2.716,0,0,1,316.515,131.978Zm-19.135-7.289a1.786,1.786,0,0,0-1.748,1.623l-.25,3.2a1.481,1.481,0,0,0,1.494,1.627h19.7a1.79,1.79,0,0,0,1.752-1.627l.25-3.2a1.485,1.485,0,0,0-1.5-1.623Z" transform="translate(-294.545 -123.85)" fill="#fff"/>
        </g>
        <path id="Path_37211" data-name="Path 37211" d="M320.706,124.352h-16.69a.522.522,0,0,1-.53-.572l.129-1.669a.634.634,0,0,1,.622-.572h16.69a.517.517,0,0,1,.526.572l-.129,1.669A.63.63,0,0,1,320.706,124.352Z" transform="translate(-269.297 -116.733)" fill="#5a4bda"/>
        <path id="Path_37212" data-name="Path 37212" d="M313.361,158.879H266.63l.4-5.1h46.731Z" transform="translate(-247.82 -135.521)" fill="#5a4bda"/>
        <path id="Path_37213" data-name="Path 37213" d="M289.85,181.174H258.74l.1-1.314h31.11Z" transform="translate(-243.222 -150.719)" fill="#5a4bda"/>
        <path id="Path_37214" data-name="Path 37214" d="M289.15,190.269H258.04l.1-1.319h31.11Z" transform="translate(-242.814 -156.017)" fill="#5a4bda"/>
        <path id="Path_37215" data-name="Path 37215" d="M288.44,199.369H257.33l.1-1.319h31.11Z" transform="translate(-242.4 -161.32)" fill="#5a4bda"/>
        <path id="Path_37216" data-name="Path 37216" d="M287.73,208.464H256.62l.1-1.314h31.11Z" transform="translate(-241.987 -166.623)" fill="#5a4bda"/>
        <path id="Path_37217" data-name="Path 37217" d="M362.373,192.561H349.68l.993-12.7h12.693Z" transform="translate(-296.218 -150.719)" fill="#5a4bda"/>
        <path id="Path_37218" data-name="Path 37218" d="M365.375,188.025c.058-.743-.517-1.252-1.56-1.252a2.687,2.687,0,0,0-2.153.918l-.8-.6a3.926,3.926,0,0,1,3.108-1.3c1.669,0,2.7.78,2.591,2.086-.15,1.94-2.216,2.086-2.332,3.592h-1.164C363.209,189.627,365.27,189.36,365.375,188.025Zm-2.62,5.312a.8.8,0,0,1,.835-.743.663.663,0,0,1,.684.743.805.805,0,0,1-.8.743.672.672,0,0,1-.718-.743Z" transform="translate(-302.733 -154.169)" fill="#fff"/>
        <path id="Path_37219" data-name="Path 37219" d="M286.26,227.238H255.15l.1-1.318h31.11Z" transform="translate(-241.13 -177.561)" fill="#5a4bda"/>
        <path id="Path_37220" data-name="Path 37220" d="M285.55,236.334H254.44l.1-1.314h31.11Z" transform="translate(-240.716 -182.864)" fill="#5a4bda"/>
        <path id="Path_37221" data-name="Path 37221" d="M284.85,245.434H253.74l.1-1.314h31.11Z" transform="translate(-240.308 -188.167)" fill="#5a4bda"/>
        <path id="Path_37222" data-name="Path 37222" d="M284.14,254.529H253.03l.1-1.318h31.11Z" transform="translate(-239.894 -193.465)" fill="#5a4bda"/>
        <path id="Path_37223" data-name="Path 37223" d="M358.783,238.625H346.09l.989-12.705h12.693Z" transform="translate(-294.126 -177.561)" fill="#5a4bda"/>
        <path id="Path_37224" data-name="Path 37224" d="M361.785,234.106c.058-.747-.517-1.252-1.56-1.252a2.687,2.687,0,0,0-2.153.918l-.8-.6a3.914,3.914,0,0,1,3.108-1.3c1.669,0,2.7.78,2.591,2.086-.15,1.94-2.216,2.086-2.332,3.592h-1.164C359.615,235.679,361.68,235.441,361.785,234.106Zm-2.62,5.328a.8.8,0,0,1,.814-.747.663.663,0,0,1,.684.747.809.809,0,0,1-.8.743.672.672,0,0,1-.7-.743Z" transform="translate(-300.641 -181.028)" fill="#fff"/>
        <path id="Path_37225" data-name="Path 37225" d="M282.67,273.3H251.56l.1-1.314h31.11Z" transform="translate(-239.038 -204.409)" fill="#5a4bda"/>
        <path id="Path_37226" data-name="Path 37226" d="M281.96,282.4H250.85l.1-1.319h31.11Z" transform="translate(-238.624 -209.706)" fill="#5a4bda"/>
        <path id="Path_37227" data-name="Path 37227" d="M281.256,291.5H250.15l.1-1.318h31.11Z" transform="translate(-238.216 -215.009)" fill="#5a4bda"/>
        <path id="Path_37228" data-name="Path 37228" d="M280.55,300.594H249.44l.1-1.314h31.11Z" transform="translate(-237.802 -220.312)" fill="#5a4bda"/>
        <path id="Path_37229" data-name="Path 37229" d="M355.193,284.691H342.5l.989-12.7h12.693Z" transform="translate(-292.034 -204.409)" fill="#5a4bda"/>
        <path id="Path_37230" data-name="Path 37230" d="M358.195,280.131c.058-.743-.517-1.252-1.565-1.252a2.683,2.683,0,0,0-2.149.918l-.8-.622a3.914,3.914,0,0,1,3.108-1.3c1.669,0,2.691.776,2.591,2.065-.15,1.944-2.216,2.086-2.332,3.592H355.9C356.025,281.725,358.09,281.466,358.195,280.131Zm-2.62,5.3a.8.8,0,0,1,.814-.743.663.663,0,0,1,.684.743.805.805,0,0,1-.8.743.668.668,0,0,1-.7-.743Z" transform="translate(-298.549 -207.835)" fill="#fff"/>
        <path id="Path_37231" data-name="Path 37231" d="M279.08,319.368H247.97l.1-1.318h31.11Z" transform="translate(-236.946 -231.25)" fill="#5a4bda"/>
        <path id="Path_37232" data-name="Path 37232" d="M278.37,328.469H247.26l.1-1.318h31.11Z" transform="translate(-236.532 -236.553)" fill="#5a4bda"/>
        <path id="Path_37233" data-name="Path 37233" d="M277.66,337.564H246.55l.1-1.314h31.11Z" transform="translate(-236.118 -241.857)" fill="#5a4bda"/>
        <path id="Path_37234" data-name="Path 37234" d="M276.95,346.659H245.84l.1-1.318h31.11Z" transform="translate(-235.704 -247.154)" fill="#5a4bda"/>
        <path id="Path_37235" data-name="Path 37235" d="M351.6,330.755H338.91l.989-12.705h12.693Z" transform="translate(-289.942 -231.25)" fill="#5a4bda"/>
        <path id="Path_37236" data-name="Path 37236" d="M354.6,326.224c.058-.747-.517-1.252-1.565-1.252a2.679,2.679,0,0,0-2.149.918l-.8-.605a3.914,3.914,0,0,1,3.108-1.3c1.669,0,2.691.78,2.591,2.086-.15,1.94-2.216,2.086-2.332,3.592h-1.164C352.435,327.814,354.5,327.559,354.6,326.224Zm-2.62,5.312a.8.8,0,0,1,.814-.747.663.663,0,0,1,.684.747.81.81,0,0,1-.8.743.672.672,0,0,1-.7-.743Z" transform="translate(-296.457 -234.705)" fill="#fff"/>
        <path id="Path_37237" data-name="Path 37237" d="M313.361,158.879H266.63l.4-5.1h46.731Z" transform="translate(-247.82 -135.521)" fill="#fff" opacity="0.7"/>
        <path id="Path_37238" data-name="Path 37238" d="M289.85,181.174H258.74l.1-1.314h31.11Z" transform="translate(-243.222 -150.719)" fill="#fff" opacity="0.7"/>
        <path id="Path_37239" data-name="Path 37239" d="M289.15,190.269H258.04l.1-1.319h31.11Z" transform="translate(-242.814 -156.017)" fill="#fff" opacity="0.7"/>
        <path id="Path_37240" data-name="Path 37240" d="M288.44,199.369H257.33l.1-1.319h31.11Z" transform="translate(-242.4 -161.32)" fill="#fff" opacity="0.7"/>
        <path id="Path_37241" data-name="Path 37241" d="M287.73,208.464H256.62l.1-1.314h31.11Z" transform="translate(-241.987 -166.623)" fill="#fff" opacity="0.7"/>
        <path id="Path_37242" data-name="Path 37242" d="M362.373,192.561H349.68l.993-12.7h12.693Z" transform="translate(-296.218 -150.719)" fill="#fff" opacity="0.7"/>
        <path id="Path_37243" data-name="Path 37243" d="M286.26,227.238H255.15l.1-1.318h31.11Z" transform="translate(-241.13 -177.561)" fill="#fff" opacity="0.7"/>
        <path id="Path_37244" data-name="Path 37244" d="M285.55,236.334H254.44l.1-1.314h31.11Z" transform="translate(-240.716 -182.864)" fill="#fff" opacity="0.7"/>
        <path id="Path_37245" data-name="Path 37245" d="M284.85,245.434H253.74l.1-1.314h31.11Z" transform="translate(-240.308 -188.167)" fill="#fff" opacity="0.7"/>
        <path id="Path_37246" data-name="Path 37246" d="M284.14,254.529H253.03l.1-1.318h31.11Z" transform="translate(-239.894 -193.465)" fill="#fff" opacity="0.7"/>
        <path id="Path_37247" data-name="Path 37247" d="M358.783,238.625H346.09l.989-12.705h12.693Z" transform="translate(-294.126 -177.561)" fill="#fff" opacity="0.7"/>
        <path id="Path_37248" data-name="Path 37248" d="M282.67,273.3H251.56l.1-1.314h31.11Z" transform="translate(-239.038 -204.409)" fill="#fff" opacity="0.7"/>
        <path id="Path_37249" data-name="Path 37249" d="M281.96,282.4H250.85l.1-1.319h31.11Z" transform="translate(-238.624 -209.706)" fill="#fff" opacity="0.7"/>
        <path id="Path_37250" data-name="Path 37250" d="M281.256,291.5H250.15l.1-1.318h31.11Z" transform="translate(-238.216 -215.009)" fill="#fff" opacity="0.7"/>
        <path id="Path_37251" data-name="Path 37251" d="M280.55,300.594H249.44l.1-1.314h31.11Z" transform="translate(-237.802 -220.312)" fill="#fff" opacity="0.7"/>
        <path id="Path_37252" data-name="Path 37252" d="M355.193,284.691H342.5l.989-12.7h12.693Z" transform="translate(-292.034 -204.409)" fill="#fff" opacity="0.7"/>
        <path id="Path_37253" data-name="Path 37253" d="M279.08,319.368H247.97l.1-1.318h31.11Z" transform="translate(-236.946 -231.25)" fill="#fff" opacity="0.7"/>
        <path id="Path_37254" data-name="Path 37254" d="M278.37,328.469H247.26l.1-1.318h31.11Z" transform="translate(-236.532 -236.553)" fill="#fff" opacity="0.7"/>
        <path id="Path_37255" data-name="Path 37255" d="M277.66,337.564H246.55l.1-1.314h31.11Z" transform="translate(-236.118 -241.857)" fill="#fff" opacity="0.7"/>
        <path id="Path_37256" data-name="Path 37256" d="M276.95,346.659H245.84l.1-1.318h31.11Z" transform="translate(-235.704 -247.154)" fill="#fff" opacity="0.7"/>
        <path id="Path_37257" data-name="Path 37257" d="M351.6,330.755H338.91l.989-12.705h12.693Z" transform="translate(-289.942 -231.25)" fill="#fff" opacity="0.7"/>
      </g>
      <g id="freepik--Chair--inject-2" transform="translate(36.562 68.845)">
        <path id="Path_37258" data-name="Path 37258" d="M181.614,257v11.491a8.762,8.762,0,0,1-2.441,6.079L168.45,285.79h6.071l11.14-10.965a8.8,8.8,0,0,0,2.629-6.259V257Z" transform="translate(-134.727 -241.562)" fill="#5a4bda"/>
        <path id="Path_37259" data-name="Path 37259" d="M188.29,257v11.553a8.446,8.446,0,0,1-.217,1.924,8.724,8.724,0,0,1-2.412,4.348l-11.14,10.965H168.45l10.723-11.22a8.762,8.762,0,0,0,2.441-6.079V257Z" transform="translate(-134.727 -241.562)" fill="#fff" opacity="0.4"/>
        <path id="Path_37260" data-name="Path 37260" d="M206.676,257v11.553a8.446,8.446,0,0,1-.217,1.924L200,267.869V257Z" transform="translate(-153.113 -241.562)" opacity="0.2" style="mix-blend-mode: normal;isolation: isolate"/>
        <path id="Path_37261" data-name="Path 37261" d="M117.859,329l-8.987,34.239a1.452,1.452,0,0,1-1.406,1.089H91.405a.868.868,0,0,1-.684-.338.855.855,0,0,1-.15-.747L99.562,329H97.835l-8.879,33.818A2.541,2.541,0,0,0,91.405,366h16.06a3.125,3.125,0,0,0,3.021-2.332l9.1-34.665Z" transform="translate(-88.354 -283.52)" fill="#5a4bda"/>
        <g id="Group_19317" data-name="Group 19317" transform="translate(0.52 45.48)" opacity="0.4" style="mix-blend-mode: normal;isolation: isolate">
          <path id="Path_37262" data-name="Path 37262" d="M117.859,329l-8.987,34.239a1.452,1.452,0,0,1-1.406,1.089H91.405a.868.868,0,0,1-.684-.338.855.855,0,0,1-.15-.747L99.562,329H97.835l-8.879,33.818A2.541,2.541,0,0,0,91.405,366h16.06a3.125,3.125,0,0,0,3.021-2.332l9.1-34.665Z" transform="translate(-88.875 -329)" fill="#fff"/>
        </g>
        <path id="Path_37263" data-name="Path 37263" d="M151.171,365.339l-9.826-37.469-1.615.421,9.713,37.047Z" transform="translate(-117.991 -282.861)" fill="#5a4bda"/>
        <path id="Path_37264" data-name="Path 37264" d="M199.171,365.339l-9.826-37.469-1.615.421,9.713,37.047Z" transform="translate(-145.963 -282.861)" fill="#5a4bda"/>
        <g id="Group_19318" data-name="Group 19318" transform="translate(21.739 45.009)" opacity="0.5">
          <path id="Path_37265" data-name="Path 37265" d="M151.171,365.339l-9.826-37.469-1.615.421,9.713,37.047Z" transform="translate(-139.73 -327.87)" fill="#fff"/>
        </g>
        <g id="Group_19319" data-name="Group 19319" transform="translate(41.767 45.009)" opacity="0.5">
          <path id="Path_37266" data-name="Path 37266" d="M199.171,365.339l-9.826-37.469-1.615.421,9.713,37.047Z" transform="translate(-187.73 -327.87)" fill="#fff"/>
        </g>
        <path id="Path_37267" data-name="Path 37267" d="M108.637,329h1.727l-1.356,5.161-1.6-.488Z" transform="translate(-99.156 -283.52)" opacity="0.2" style="mix-blend-mode: normal;isolation: isolate"/>
        <path id="Path_37268" data-name="Path 37268" d="M141.345,327.87l2.232,8.516-1.873-.567-1.974-7.527Z" transform="translate(-117.991 -282.861)" opacity="0.2" style="mix-blend-mode: normal;isolation: isolate"/>
        <path id="Path_37269" data-name="Path 37269" d="M154.558,329h1.723l-2.829,10.807-1.6-.488Z" transform="translate(-125.054 -283.52)" opacity="0.2" style="mix-blend-mode: normal;isolation: isolate"/>
        <path id="Path_37270" data-name="Path 37270" d="M193.288,343.1l-1.882-.576-3.676-14.036,1.615-.459Z" transform="translate(-145.963 -282.955)" opacity="0.2" style="mix-blend-mode: normal;isolation: isolate"/>
        <path id="Path_37271" data-name="Path 37271" d="M95.586,266.051l-7.8-42.238-.1-.638a2.745,2.745,0,0,1,.563-2.257A2.558,2.558,0,0,1,90.249,220h16.89a3.613,3.613,0,0,1,3.363,2.887l.125.713,7.8,42.142-1.644.3-7.823-42.267-.1-.592a1.928,1.928,0,0,0-1.719-1.515H90.232a.91.91,0,0,0-.726.317,1.1,1.1,0,0,0-.2.905l.117.7,7.807,42.142Z" transform="translate(-87.628 -219.999)" fill="#5a4bda"/>
        <g id="Group_19320" data-name="Group 19320" opacity="0.5" style="mix-blend-mode: normal;isolation: isolate">
          <path id="Path_37272" data-name="Path 37272" d="M95.586,266.051l-7.8-42.238-.1-.638a2.745,2.745,0,0,1,.563-2.257A2.558,2.558,0,0,1,90.249,220h16.89a3.613,3.613,0,0,1,3.363,2.887l.125.713,7.8,42.142-1.644.3-7.823-42.267-.1-.592a1.928,1.928,0,0,0-1.719-1.515H90.232a.91.91,0,0,0-.726.317,1.1,1.1,0,0,0-.2.905l.117.7,7.807,42.142Z" transform="translate(-87.628 -219.999)" fill="#fff"/>
        </g>
        <path id="Path_37273" data-name="Path 37273" d="M111.966,320.33h32.1a2.086,2.086,0,0,1,2.086,2.086V325.2H109.88v-2.791a2.086,2.086,0,0,1,2.086-2.078Z" transform="translate(-100.595 -278.467)" fill="#5a4bda"/>
        <rect id="Rectangle_7900" data-name="Rectangle 7900" width="38.95" height="2.437" rx="1.218" transform="translate(7.945 44.303)" fill="#5a4bda"/>
        <rect id="Rectangle_7901" data-name="Rectangle 7901" width="38.95" height="2.437" rx="1.218" transform="translate(7.945 44.303)" fill="#fff" opacity="0.6" style="mix-blend-mode: normal;isolation: isolate"/>
        <path id="Path_37274" data-name="Path 37274" d="M114.291,246.107H93.083L89.92,229h21.2l3.138,16.948Z" transform="translate(-88.964 -225.244)" fill="#5a4bda"/>
      </g>
      <g id="freepik--Character--inject-2" transform="translate(47.774 40.885)">
        <g id="freepik--group--inject-2" transform="translate(0 0)">
          <path id="Path_37275" data-name="Path 37275" d="M188.113,165.356s-2.666-6.192-2.9-6.855.042-4.014-.163-4.59-3.3-.989-3.955-.914-.079,5.257.192,5.666a7.513,7.513,0,0,0,1.189,1.135l2.357,7.093Z" transform="translate(-153.134 -152.989)" fill="#b97964"/>
          <path id="Path_37276" data-name="Path 37276" d="M163.96,187.516c1.819.288,9.267,1.364,10.932.255,1.344-.9-2.441-15.438-2.441-15.438l3.367-1.373s8,17.616,3.726,21.638c-2.17,2.044-8.27,2.562-17.044,2.562Z" transform="translate(-142.471 -163.462)" fill="#5a4bda"/>
          <path id="Path_37277" data-name="Path 37277" d="M163.96,187.516c1.819.288,9.267,1.364,10.932.255,1.344-.9-2.441-15.438-2.441-15.438l3.367-1.373s8,17.616,3.726,21.638c-2.17,2.044-8.27,2.562-17.044,2.562Z" transform="translate(-142.471 -163.462)" fill="#fff" opacity="0.8"/>
          <path id="Path_37278" data-name="Path 37278" d="M167.627,222.24c-1.293.038-2.675.054-4.127.054l1.252-4.794A10.749,10.749,0,0,1,167.627,222.24Z" transform="translate(-143.054 -190.583)" opacity="0.1" style="mix-blend-mode: normal;isolation: isolate"/>
          <line id="Line_519" data-name="Line 519" x2="8.829" y2="9.338" transform="translate(31.991 34.215)" fill="none" stroke="#2e353a" stroke-width="2"/>
          <path id="Path_37279" data-name="Path 37279" d="M176,245.255s6.738-.209,7.439-.28,3.618-1.74,4.243-1.807,2.295,2.57,2.5,3.2-4.727,2.295-5.216,2.228a7.669,7.669,0,0,1-1.531-.6l-7.439.876Z" transform="translate(-150.339 -205.541)" fill="#b97964"/>
          <path id="Path_37280" data-name="Path 37280" d="M166.5,398.157l3.325-.455.459-7.9-3.317.459Z" transform="translate(-144.802 -290.992)" fill="#b97964"/>
          <path id="Path_37281" data-name="Path 37281" d="M168.943,407.447l-3.755-.238a.246.246,0,0,0-.263.213h0l-.367,2.962a.588.588,0,0,0,.547.626c1.31.063,1.94.025,3.592.117a31.2,31.2,0,0,0,4.414.138c1.4-.138,1.227-1.515.626-1.581a9.183,9.183,0,0,1-4.231-2.015A.935.935,0,0,0,168.943,407.447Z" transform="translate(-143.67 -301.137)" fill="#2e353a"/>
          <path id="Path_37282" data-name="Path 37282" d="M176.513,408.169a4.255,4.255,0,0,1-.885-.175.079.079,0,0,1-.058-.063.092.092,0,0,1,.038-.079c.113-.067,1.1-.655,1.5-.471a.292.292,0,0,1,.163.234.417.417,0,0,1-.121.417A.9.9,0,0,1,176.513,408.169Zm.53-.63c-.213-.1-.789.146-1.193.367.592.154,1.031.163,1.2.021a.292.292,0,0,0,.071-.275A.134.134,0,0,0,177.043,407.539Z" transform="translate(-150.088 -301.217)" fill="#5a4bda"/>
          <path id="Path_37283" data-name="Path 37283" d="M175.645,406.844a.049.049,0,0,1-.033,0,.1.1,0,0,1-.042-.063c0-.029,0-1.01.342-1.314a.417.417,0,0,1,.342-.088.3.3,0,0,1,.267.25c.054.371-.488,1.039-.834,1.214a.05.05,0,0,1-.042,0Zm.542-1.3a.221.221,0,0,0-.171.063c-.217.179-.271.73-.284,1.043a1.64,1.64,0,0,0,.634-.976c0-.046-.029-.1-.142-.125Z" transform="translate(-150.088 -300.067)" fill="#5a4bda"/>
          <path id="Path_37284" data-name="Path 37284" d="M167.259,390.265l3.317-.455-.263,4.515-3.313.292Z" transform="translate(-145.094 -290.998)" opacity="0.2" style="mix-blend-mode: normal;isolation: isolate"/>
          <path id="Path_37285" data-name="Path 37285" d="M138.219,289.856l-.809-5.082-18.634-1.114s-1.982,10.573-.459,13.389c2.716,5.028,17.366,2.5,21.651,2.983-2.562,10.477-2.312,30.951-2.312,30.951l6.121.467s4.711-22.06,5.662-32.545C150.081,291.834,144.219,292.009,138.219,289.856Z" transform="translate(-116.388 -229.138)" fill="#2e353a"/>
          <path id="Path_37286" data-name="Path 37286" d="M163.616,393.522l7.356.484.63-3.15-8.082-.376Z" transform="translate(-143.066 -291.388)" fill="#5a4bda"/>
          <path id="Path_37287" data-name="Path 37287" d="M184.88,392.107l3.346.246,2.095-7.631-3.342-.242Z" transform="translate(-155.513 -287.892)" fill="#b97964"/>
          <path id="Path_37288" data-name="Path 37288" d="M186.813,401.1l-3.626-1.01a.238.238,0,0,0-.3.15h0l-.976,2.821a.593.593,0,0,0,.417.73c1.252.33,1.89.417,3.488.859a31.026,31.026,0,0,0,4.289,1.056c1.4.159,1.515-1.227.939-1.415a9.262,9.262,0,0,1-3.718-2.854.931.931,0,0,0-.513-.338Z" transform="translate(-153.77 -296.983)" fill="#2e353a"/>
          <path id="Path_37289" data-name="Path 37289" d="M194.845,403.58a3.965,3.965,0,0,1-.834-.359.067.067,0,0,1-.042-.071.083.083,0,0,1,.05-.071c.121-.042,1.214-.417,1.565-.146a.292.292,0,0,1,.117.263.417.417,0,0,1-.213.392A.889.889,0,0,1,194.845,403.58Zm.647-.509c-.188-.142-.8,0-1.252.113.547.275.976.376,1.168.271a.288.288,0,0,0,.129-.255.129.129,0,0,0-.054-.129Z" transform="translate(-160.81 -298.589)" fill="#5a4bda"/>
          <path id="Path_37290" data-name="Path 37290" d="M194.014,401.931h-.05a.079.079,0,0,1-.025-.071c0-.029.2-.989.605-1.214a.417.417,0,0,1,.35,0,.3.3,0,0,1,.213.3c-.029.371-.7.914-1.072,1.014A.058.058,0,0,1,194.014,401.931Zm.784-1.16a.225.225,0,0,0-.179.025c-.25.133-.417.659-.5.964.342-.159.793-.58.834-.834,0-.046,0-.1-.113-.146Z" transform="translate(-160.792 -297.29)" fill="#5a4bda"/>
          <path id="Path_37291" data-name="Path 37291" d="M188.29,384.48l3.342.246-1.2,4.36-3.3-.4Z" transform="translate(-156.825 -287.892)" opacity="0.2" style="mix-blend-mode: normal;isolation: isolate"/>
          <path id="Path_37292" data-name="Path 37292" d="M160.348,332.918l-5.891-1.732s3.538-19.853,7.085-26.737c-.267-.088-.622-.2-1.06-.33-.789-.238-1.836-.534-3.067-.876-8.562-2.374-25.915-6.826-25.915-6.826l7.928-7.4S171,293.835,171.66,302.155C171.973,306.156,160.348,332.918,160.348,332.918Z" transform="translate(-124.406 -232.262)" fill="#2e353a"/>
          <path id="Path_37293" data-name="Path 37293" d="M184.7,386.206l7.093,2.007,1.273-2.95-7.828-2.053Z" transform="translate(-155.408 -287.152)" fill="#5a4bda"/>
          <path id="Path_37294" data-name="Path 37294" d="M167.713,308.407c-.789-.238-1.836-.534-3.067-.876.246-2.019.25-4.335-.722-5.516-1.932-2.353-6.9-3.734-9.73-4.235-2.366-.417-10.314-1.252-10.314-1.252a62.515,62.515,0,0,1,20.862,2.086C169.933,300.142,168.919,305.236,167.713,308.407Z" transform="translate(-131.62 -236.549)" opacity="0.2" style="mix-blend-mode: normal;isolation: isolate"/>
          <path id="Path_37295" data-name="Path 37295" d="M138.7,208.734s2.7,10.014-.455,31.581c-5.887-.125-15.78-.355-18.647-.417-.071-3,2.145-17.725-.446-31.923a39.377,39.377,0,0,1,5.645-.559,72.606,72.606,0,0,1,8.307.179A37.056,37.056,0,0,1,138.7,208.734Z" transform="translate(-117.209 -184.679)" fill="#5a4bda"/>
          <path id="Path_37296" data-name="Path 37296" d="M138.7,208.734s2.7,10.014-.455,31.581c-5.887-.125-15.78-.355-18.647-.417-.071-3,2.145-17.725-.446-31.923a39.377,39.377,0,0,1,5.645-.559,72.606,72.606,0,0,1,8.307.179A37.056,37.056,0,0,1,138.7,208.734Z" transform="translate(-117.209 -184.679)" fill="#fff" opacity="0.7"/>
          <path id="Path_37297" data-name="Path 37297" d="M126.811,235.3c-1.669-.367-3.659-1.974-5.3-3.559,0-2.821-.138-5.821-.442-8.879C123.39,226.294,129.674,235.928,126.811,235.3Z" transform="translate(-118.328 -193.707)" opacity="0.1" style="mix-blend-mode: normal;isolation: isolate"/>
          <path id="Path_37298" data-name="Path 37298" d="M116.426,208.82c-6.38,2.3,4.819,19.573,8.295,21.355s21.142-1.949,21.142-1.949l-.7-3.572s-15.63.4-17.069.033-4.861-7.727-6.83-11.2A11.145,11.145,0,0,0,116.426,208.82Z" transform="translate(-114.498 -185.525)" fill="#5a4bda"/>
          <path id="Path_37299" data-name="Path 37299" d="M116.426,208.82c-6.38,2.3,4.819,19.573,8.295,21.355s21.142-1.949,21.142-1.949l-.7-3.572s-15.63.4-17.069.033-4.861-7.727-6.83-11.2A11.145,11.145,0,0,0,116.426,208.82Z" transform="translate(-114.498 -185.525)" fill="#fff" opacity="0.8"/>
          <path id="Path_37300" data-name="Path 37300" d="M185,246l.905,4.744,1.669-.572L186.949,246Z" transform="translate(-155.583 -207.192)" fill="#5a4bda"/>
          <path id="Path_37301" data-name="Path 37301" d="M185,246l.905,4.744,1.669-.572L186.949,246Z" transform="translate(-155.583 -207.192)" fill="#fff" opacity="0.7"/>
          <path id="Path_37302" data-name="Path 37302" d="M185.567,172.159l4.49-1.777-.872-1.531-3.985,1.394Z" transform="translate(-155.7 -162.232)" fill="#5a4bda"/>
          <path id="Path_37303" data-name="Path 37303" d="M185.567,172.159l4.49-1.777-.872-1.531-3.985,1.394Z" transform="translate(-155.7 -162.232)" fill="#fff" opacity="0.7"/>
          <path id="Path_37304" data-name="Path 37304" d="M130.24,206.52s.121,1.949,3.947,3.826l2.645-1.915s.755,4.89,1.252,8.541a59.567,59.567,0,0,0-.534-8.086l2.024.718a8.366,8.366,0,0,0-4.656-3.638A6.055,6.055,0,0,0,130.24,206.52Z" transform="translate(-123.672 -183.742)" opacity="0.1" style="mix-blend-mode: normal;isolation: isolate"/>
          <path id="Path_37305" data-name="Path 37305" d="M133.672,185.16c.467,2.683.885,7.59-1.022,9.334l5.57,1.552,2.72-1.373c-2.967-.776-2.841-2.987-2.278-5.053Z" transform="translate(-125.076 -171.737)" fill="#b97964"/>
          <path id="Path_37306" data-name="Path 37306" d="M139.831,189.52l2.962,2.641a8.874,8.874,0,0,0-.288,1.469,3.676,3.676,0,0,1-2.766-2.666A3.918,3.918,0,0,1,139.831,189.52Z" transform="translate(-129.19 -174.278)" opacity="0.2" style="mix-blend-mode: normal;isolation: isolate"/>
          <path id="Path_37307" data-name="Path 37307" d="M143.9,165.112c-1.214,1.319-.167,2.825,3.709,4.656.922-2.032.359-5.424-.893-6.017S144.962,163.969,143.9,165.112Z" transform="translate(-131.354 -159.145)" fill="#2e353a"/>
          <path id="Path_37308" data-name="Path 37308" d="M130.923,168.369c.985,3.492,1.385,5.583,3.563,7.014a4.82,4.82,0,0,0,7.377-4.135c.067-3.338-1.552-8.491-5.32-9.146a4.949,4.949,0,0,0-5.62,6.259Z" transform="translate(-123.954 -158.255)" fill="#b97964"/>
          <path id="Path_37309" data-name="Path 37309" d="M144.355,175.97c.063.288.267.488.455.446s.288-.3.225-.592-.263-.488-.451-.451S144.314,175.682,144.355,175.97Z" transform="translate(-131.891 -166.031)" fill="#2e353a"/>
          <path id="Path_37310" data-name="Path 37310" d="M152.195,174.279c.063.288.267.488.455.446s.292-.3.23-.6-.267-.488-.455-.446S152.132,173.991,152.195,174.279Z" transform="translate(-136.455 -165.045)" fill="#2e353a"/>
          <path id="Path_37311" data-name="Path 37311" d="M149.73,176a10.39,10.39,0,0,0,1.911,2.166,1.7,1.7,0,0,1-1.323.555Z" transform="translate(-135.03 -166.399)" fill="#a24e3f"/>
          <path id="Path_37312" data-name="Path 37312" d="M141.383,173.083a.163.163,0,0,1-.2-.229,1.711,1.711,0,0,1,1.227-1,.171.171,0,0,1,.2.134h0a.179.179,0,0,1-.146.2h0a1.365,1.365,0,0,0-.96.8A.167.167,0,0,1,141.383,173.083Z" transform="translate(-130.037 -163.983)" fill="#2e353a"/>
          <path id="Path_37313" data-name="Path 37313" d="M153.151,170.347a.167.167,0,0,1-.175-.063,1.385,1.385,0,0,0-1.118-.559.175.175,0,0,1-.188-.159.179.179,0,0,1,.154-.188,1.727,1.727,0,0,1,1.423.693.171.171,0,0,1-.029.242h0A.146.146,0,0,1,153.151,170.347Z" transform="translate(-136.16 -162.54)" fill="#2e353a"/>
          <path id="Path_37314" data-name="Path 37314" d="M128.624,168.772c1.777.209,1.961,2.036.209,5.946-2.024-.943-3.805-3.889-3.234-5.149S127.051,168.584,128.624,168.772Z" transform="translate(-120.904 -162.091)" fill="#2e353a"/>
          <path id="Path_37315" data-name="Path 37315" d="M128.326,181.594a3.442,3.442,0,0,0,2.04,1.669c1.16.338,1.752-.7,1.444-1.8-.28-.993-1.223-2.366-2.391-2.22A1.538,1.538,0,0,0,128.326,181.594Z" transform="translate(-122.429 -168.284)" fill="#b97964"/>
          <path id="Path_37316" data-name="Path 37316" d="M125.764,161.86s-.88-1.135.834-3.4,5.9-2.967,9.117-2.341,1.3,4.172.154,4.761l.142-.555a9.6,9.6,0,0,1-3.964,1.076l.634-.588S127.642,162.114,125.764,161.86Z" transform="translate(-120.932 -154.683)" fill="#2e353a"/>
          <path id="Path_37317" data-name="Path 37317" d="M147.238,184.668a8.675,8.675,0,0,0-.121,1.3l-.225.033c-1.035.138-1.556-.142-1.823-.488a1.381,1.381,0,0,1-.246-.588,1.286,1.286,0,0,1,0-.363,4.894,4.894,0,0,0,2.086.15C147.1,184.694,147.238,184.668,147.238,184.668Z" transform="translate(-132.162 -171.387)" fill="#2e353a"/>
          <path id="Path_37318" data-name="Path 37318" d="M146.883,184.71l-.046.384a3.1,3.1,0,0,1-2.015-.171,1.286,1.286,0,0,1,0-.363,4.894,4.894,0,0,0,2.061.15Z" transform="translate(-132.162 -171.387)" fill="#fff"/>
          <path id="Path_37319" data-name="Path 37319" d="M147.253,187.288c-1.035.138-1.556-.142-1.823-.488a3.338,3.338,0,0,1,1.172.075,1.252,1.252,0,0,1,.651.413Z" transform="translate(-132.524 -172.68)" fill="#a24e3f"/>
          <path id="Path_37320" data-name="Path 37320" d="M132.2,203.58a24.585,24.585,0,0,0,4.59,2.783,4.156,4.156,0,0,0,.438-2.545l2.282,1.59a5.637,5.637,0,0,1,0,2.921l-2.72-1.548-2.57,1.878s-3.8-1.1-4.022-3.409Z" transform="translate(-123.648 -182.471)" fill="#5a4bda"/>
          <path id="Path_37321" data-name="Path 37321" d="M132.2,203.58a24.585,24.585,0,0,0,4.59,2.783,4.156,4.156,0,0,0,.438-2.545l2.282,1.59a5.637,5.637,0,0,1,0,2.921l-2.72-1.548-2.57,1.878s-3.8-1.1-4.022-3.409Z" transform="translate(-123.648 -182.471)" fill="#fff" opacity="0.8"/>
        </g>
        <rect id="Rectangle_7902" data-name="Rectangle 7902" width="42.563" height="2.199" rx="1.099" transform="translate(16.203 42.509)" fill="#5a4bda"/>
        <path id="Path_37322" data-name="Path 37322" d="M195.559,255.376V256.6c0,.271-.075.488-.342.488H153.626c-.271,0-.626-.217-.626-.488v-1.223c0-.267.355-.376.626-.376h41.591C195.484,255,195.559,255.108,195.559,255.376Z" transform="translate(-136.935 -212.436)" fill="#fff" opacity="0.5"/>
        <path id="Path_37323" data-name="Path 37323" d="M170.524,255.376V256.6c0,.271-.092.488-.359.488h-16.54c-.271,0-.626-.217-.626-.488v-1.223c0-.267.355-.376.626-.376h16.54C170.432,255,170.524,255.108,170.524,255.376Z" transform="translate(-136.935 -212.436)" opacity="0.2" style="mix-blend-mode: normal;isolation: isolate"/>
      </g>
      <g id="freepik--Lightbulb--inject-2" transform="translate(47.232 6.609)">
        <path id="Path_37324" data-name="Path 37324" d="M150.464,100.947a7.982,7.982,0,1,0-10.811,9.471,2.274,2.274,0,0,1,1.206,1.16l.271.613,7.681-2.086-.079-.668a2.341,2.341,0,0,1,.455-1.623A8.036,8.036,0,0,0,150.464,100.947Z" transform="translate(-125.78 -84.971)" fill="#5a4bda"/>
        <path id="Path_37325" data-name="Path 37325" d="M151.536,125.141s-1.156-3.626-3.2-5.232l1.131-.309.088-1.74,1.848,2.675-.15-3.255,1.823,2.967.184-1.669,1.615-.417a9.263,9.263,0,0,0-.446,6.3" transform="translate(-133.678 -97.903)" fill="none" stroke="#fff" stroke-linecap="round" stroke-linejoin="round" stroke-width="1"/>
        <path id="Path_37326" data-name="Path 37326" d="M156.949,134.551a2.948,2.948,0,1,0,3.229,2.149A2.758,2.758,0,0,0,156.949,134.551Z" transform="translate(-137.639 -107.922)" fill="#2e353a"/>
        <path id="Path_37327" data-name="Path 37327" d="M156.131,136.288l-2.737.747a2.687,2.687,0,0,1-3.238-1.694l-.9-2.533a.384.384,0,0,1,.263-.5l7.544-2.057a.384.384,0,0,1,.48.3l.513,2.633A2.687,2.687,0,0,1,156.131,136.288Z" transform="translate(-134.2 -105.454)" fill="#5a4bda"/>
        <path id="Path_37328" data-name="Path 37328" d="M156.131,136.288l-2.737.747a2.687,2.687,0,0,1-3.238-1.694l-.9-2.533a.384.384,0,0,1,.263-.5l7.544-2.057a.384.384,0,0,1,.48.3l.513,2.633A2.687,2.687,0,0,1,156.131,136.288Z" transform="translate(-134.2 -105.454)" fill="#fff" opacity="0.4"/>
        <path id="Path_37329" data-name="Path 37329" d="M119.534,94.794a12.937,12.937,0,0,0-2.266-.213,9.244,9.244,0,0,0-1.131.063c-.188.029-.376.05-.555.1-.092.025-.184.038-.271.071l-.263.083-.3.1.179-.263a10.064,10.064,0,0,0,1.2-2.42A7.439,7.439,0,0,0,116.438,91a5.932,5.932,0,0,0,.058-.663,5.867,5.867,0,0,0,0-.663,4.886,4.886,0,0,0-.092-.651l-.079-.317-.1-.313a3.982,3.982,0,0,0-.271-.592,4.7,4.7,0,0,0-.346-.551,5.492,5.492,0,0,0-.417-.5l-.229-.234-.25-.217c-.163-.15-.355-.267-.526-.417a4.4,4.4,0,0,0-.563-.355l-.417-.275.463-.221c.221-.108.455-.238.676-.371s.442-.271.659-.417a10.923,10.923,0,0,0,1.223-.968c.188-.175.371-.355.551-.542a7.264,7.264,0,0,0,.5-.588,4.57,4.57,0,0,0,.417-.63,6.03,6.03,0,0,0,.363-.663,5.6,5.6,0,0,0,.284-.7l.108-.359.079-.371a4.937,4.937,0,0,0,.083-.743,5.675,5.675,0,0,0-.134-1.5l-.083-.371-.117-.363c-.071-.246-.184-.476-.275-.713s-.225-.459-.338-.693l-.6-1.252,1.143.734a6.452,6.452,0,0,0,.655.384c.238.121.459.238.693.342a11.326,11.326,0,0,0,1.435.555c.246.071.492.138.739.192a6.489,6.489,0,0,0,.747.125,5.653,5.653,0,0,0,.747.046,6.155,6.155,0,0,0,.739-.05l.359-.063.355-.1a4.886,4.886,0,0,0,.668-.275,2.288,2.288,0,0,0,.309-.179,2.085,2.085,0,0,0,.3-.209,5.421,5.421,0,0,0,.542-.484,5.538,5.538,0,0,0,.463-.572,5.212,5.212,0,0,0,.4-.634c.129-.213.217-.455.33-.68s.179-.476.271-.713l.522-1.369.259,1.427a5.089,5.089,0,0,0,.179.688,6.53,6.53,0,0,0,.993,1.94,5.053,5.053,0,0,0,1.014,1.01,4.315,4.315,0,0,0,.6.384,4.591,4.591,0,0,0,.655.292,5.475,5.475,0,0,0,.693.192,6.005,6.005,0,0,0,.722.1,7.089,7.089,0,0,0,.73,0c.246,0,.492-.033.739-.054s.492-.079.734-.117l.73-.175.722-.217.714-.255.989-.355-.567.88c-.1.154-.209.342-.3.522s-.184.363-.267.555a6.764,6.764,0,0,0-.388,1.16,5.074,5.074,0,0,0-.138,1.2,3.626,3.626,0,0,0,.2,1.16l.113.275.142.3a3.6,3.6,0,0,0,.346.48,4.061,4.061,0,0,0,.417.417,4.707,4.707,0,0,0,.488.371,5.489,5.489,0,0,0,.526.317c.179.1.371.175.559.267l.584.221.6.188.417.134-.35.271a5.91,5.91,0,0,0-.663.6,6.5,6.5,0,0,0-.576.693c-.1.121-.171.25-.255.376a3.6,3.6,0,0,0-.217.392,2.6,2.6,0,0,0-.184.417,2.534,2.534,0,0,0-.138.417c-.029.146-.079.288-.1.417l-.042.446a2.722,2.722,0,0,0,.025.451,2,2,0,0,0,.075.442,2.606,2.606,0,0,0,.117.417l.171.417a2.457,2.457,0,0,0,.213.417l.234.417.088.146h-.163a7.164,7.164,0,0,0-1.828.242,4,4,0,0,0-.86.338,1.9,1.9,0,0,0-.2.121.984.984,0,0,0-.188.138,1.507,1.507,0,0,0-.175.15l-.163.171.154-.179a1.253,1.253,0,0,1,.167-.163,1.307,1.307,0,0,1,.184-.15c.063-.042.125-.092.192-.129a4.286,4.286,0,0,1,.855-.392,6.835,6.835,0,0,1,1.857-.33l-.071.146-.259-.417a2.5,2.5,0,0,1-.242-.417l-.2-.417A2.441,2.441,0,0,1,139,89.14a2.02,2.02,0,0,1-.1-.471c0-.159-.038-.321-.042-.48V87.7a3.158,3.158,0,0,1,.083-.476,2.992,2.992,0,0,1,.134-.467,2.6,2.6,0,0,1,.179-.451,3.455,3.455,0,0,1,.217-.417,4.525,4.525,0,0,1,.25-.417,6.5,6.5,0,0,1,.6-.755,6.359,6.359,0,0,1,.705-.672l.079.417-.63-.179-.622-.221c-.2-.088-.417-.167-.609-.271a5.311,5.311,0,0,1-.58-.33,5.061,5.061,0,0,1-.547-.4,4.039,4.039,0,0,1-.476-.476,3.829,3.829,0,0,1-.417-.555l-.171-.3-.138-.321a4.172,4.172,0,0,1-.267-1.327,5.452,5.452,0,0,1,.121-1.356,7.574,7.574,0,0,1,.392-1.281c.083-.209.175-.417.275-.609s.2-.392.334-.6l.417.526-.743.271-.755.234c-.259.071-.517.129-.776.192a6.214,6.214,0,0,1-.789.129,7.394,7.394,0,0,1-.805.067,7.572,7.572,0,0,1-.834,0,6.725,6.725,0,0,1-.809-.108,6.6,6.6,0,0,1-.8-.213,6.14,6.14,0,0,1-.759-.33,5.129,5.129,0,0,1-.705-.442,5.842,5.842,0,0,1-1.177-1.156,6.834,6.834,0,0,1-.834-1.4,7.322,7.322,0,0,1-.3-.759,6.29,6.29,0,0,1-.217-.805l.78.058c-.1.259-.184.522-.288.776a8.345,8.345,0,0,1-.359.755,5.838,5.838,0,0,1-.417.722,6.679,6.679,0,0,1-.534.668,5.644,5.644,0,0,1-.643.576,2.573,2.573,0,0,1-.359.242,3.372,3.372,0,0,1-.376.217,5.6,5.6,0,0,1-.805.325l-.417.1-.417.075a5.843,5.843,0,0,1-.834.046,6.261,6.261,0,0,1-.834-.054,7.7,7.7,0,0,1-.834-.146c-.271-.058-.538-.134-.8-.217a11.491,11.491,0,0,1-1.527-.6c-.25-.113-.492-.238-.73-.367s-.471-.267-.718-.417l.547-.5c.121.25.25.492.359.751a8.343,8.343,0,0,1,.3.78l.125.417.092.417a8.128,8.128,0,0,1,.125.835,7.158,7.158,0,0,1,0,.834,5.672,5.672,0,0,1-.1.834l-.092.417-.125.417a6.465,6.465,0,0,1-.325.784,5.975,5.975,0,0,1-.417.73,8,8,0,0,1-.492.659c-.179.217-.363.417-.555.622s-.4.384-.6.567a12.582,12.582,0,0,1-1.314.989q-.346.225-.7.417c-.242.134-.48.259-.743.376l.029-.5c.2.134.417.255.592.392a6.668,6.668,0,0,1,.555.446l.267.242.246.259a6.439,6.439,0,0,1,.451.559,5.2,5.2,0,0,1,.371.622,4.826,4.826,0,0,1,.284.659l.1.346.075.35a5.194,5.194,0,0,1,.083.713,6.914,6.914,0,0,1-.484,2.766,10.431,10.431,0,0,1-1.331,2.445l-.121-.167.28-.079c.1-.029.192-.042.288-.063.188-.042.38-.054.572-.079a9.662,9.662,0,0,1,1.152,0,13.306,13.306,0,0,1,2.266.317Z" transform="translate(-113.2 -70.84)" fill="#5a4bda"/>
        <path id="Path_37330" data-name="Path 37330" d="M119.534,94.794a12.937,12.937,0,0,0-2.266-.213,9.244,9.244,0,0,0-1.131.063c-.188.029-.376.05-.555.1-.092.025-.184.038-.271.071l-.263.083-.3.1.179-.263a10.064,10.064,0,0,0,1.2-2.42A7.439,7.439,0,0,0,116.438,91a5.932,5.932,0,0,0,.058-.663,5.867,5.867,0,0,0,0-.663,4.886,4.886,0,0,0-.092-.651l-.079-.317-.1-.313a3.982,3.982,0,0,0-.271-.592,4.7,4.7,0,0,0-.346-.551,5.492,5.492,0,0,0-.417-.5l-.229-.234-.25-.217c-.163-.15-.355-.267-.526-.417a4.4,4.4,0,0,0-.563-.355l-.417-.275.463-.221c.221-.108.455-.238.676-.371s.442-.271.659-.417a10.923,10.923,0,0,0,1.223-.968c.188-.175.371-.355.551-.542a7.264,7.264,0,0,0,.5-.588,4.57,4.57,0,0,0,.417-.63,6.03,6.03,0,0,0,.363-.663,5.6,5.6,0,0,0,.284-.7l.108-.359.079-.371a4.937,4.937,0,0,0,.083-.743,5.675,5.675,0,0,0-.134-1.5l-.083-.371-.117-.363c-.071-.246-.184-.476-.275-.713s-.225-.459-.338-.693l-.6-1.252,1.143.734a6.452,6.452,0,0,0,.655.384c.238.121.459.238.693.342a11.326,11.326,0,0,0,1.435.555c.246.071.492.138.739.192a6.489,6.489,0,0,0,.747.125,5.653,5.653,0,0,0,.747.046,6.155,6.155,0,0,0,.739-.05l.359-.063.355-.1a4.886,4.886,0,0,0,.668-.275,2.288,2.288,0,0,0,.309-.179,2.085,2.085,0,0,0,.3-.209,5.421,5.421,0,0,0,.542-.484,5.538,5.538,0,0,0,.463-.572,5.212,5.212,0,0,0,.4-.634c.129-.213.217-.455.33-.68s.179-.476.271-.713l.522-1.369.259,1.427a5.089,5.089,0,0,0,.179.688,6.53,6.53,0,0,0,.993,1.94,5.053,5.053,0,0,0,1.014,1.01,4.315,4.315,0,0,0,.6.384,4.591,4.591,0,0,0,.655.292,5.475,5.475,0,0,0,.693.192,6.005,6.005,0,0,0,.722.1,7.089,7.089,0,0,0,.73,0c.246,0,.492-.033.739-.054s.492-.079.734-.117l.73-.175.722-.217.714-.255.989-.355-.567.88c-.1.154-.209.342-.3.522s-.184.363-.267.555a6.764,6.764,0,0,0-.388,1.16,5.074,5.074,0,0,0-.138,1.2,3.626,3.626,0,0,0,.2,1.16l.113.275.142.3a3.6,3.6,0,0,0,.346.48,4.061,4.061,0,0,0,.417.417,4.707,4.707,0,0,0,.488.371,5.489,5.489,0,0,0,.526.317c.179.1.371.175.559.267l.584.221.6.188.417.134-.35.271a5.91,5.91,0,0,0-.663.6,6.5,6.5,0,0,0-.576.693c-.1.121-.171.25-.255.376a3.6,3.6,0,0,0-.217.392,2.6,2.6,0,0,0-.184.417,2.534,2.534,0,0,0-.138.417c-.029.146-.079.288-.1.417l-.042.446a2.722,2.722,0,0,0,.025.451,2,2,0,0,0,.075.442,2.606,2.606,0,0,0,.117.417l.171.417a2.457,2.457,0,0,0,.213.417l.234.417.088.146h-.163a7.164,7.164,0,0,0-1.828.242,4,4,0,0,0-.86.338,1.9,1.9,0,0,0-.2.121.984.984,0,0,0-.188.138,1.507,1.507,0,0,0-.175.15l-.163.171.154-.179a1.253,1.253,0,0,1,.167-.163,1.307,1.307,0,0,1,.184-.15c.063-.042.125-.092.192-.129a4.286,4.286,0,0,1,.855-.392,6.835,6.835,0,0,1,1.857-.33l-.071.146-.259-.417a2.5,2.5,0,0,1-.242-.417l-.2-.417A2.441,2.441,0,0,1,139,89.14a2.02,2.02,0,0,1-.1-.471c0-.159-.038-.321-.042-.48V87.7a3.158,3.158,0,0,1,.083-.476,2.992,2.992,0,0,1,.134-.467,2.6,2.6,0,0,1,.179-.451,3.455,3.455,0,0,1,.217-.417,4.525,4.525,0,0,1,.25-.417,6.5,6.5,0,0,1,.6-.755,6.359,6.359,0,0,1,.705-.672l.079.417-.63-.179-.622-.221c-.2-.088-.417-.167-.609-.271a5.311,5.311,0,0,1-.58-.33,5.061,5.061,0,0,1-.547-.4,4.039,4.039,0,0,1-.476-.476,3.829,3.829,0,0,1-.417-.555l-.171-.3-.138-.321a4.172,4.172,0,0,1-.267-1.327,5.452,5.452,0,0,1,.121-1.356,7.574,7.574,0,0,1,.392-1.281c.083-.209.175-.417.275-.609s.2-.392.334-.6l.417.526-.743.271-.755.234c-.259.071-.517.129-.776.192a6.214,6.214,0,0,1-.789.129,7.394,7.394,0,0,1-.805.067,7.572,7.572,0,0,1-.834,0,6.725,6.725,0,0,1-.809-.108,6.6,6.6,0,0,1-.8-.213,6.14,6.14,0,0,1-.759-.33,5.129,5.129,0,0,1-.705-.442,5.842,5.842,0,0,1-1.177-1.156,6.834,6.834,0,0,1-.834-1.4,7.322,7.322,0,0,1-.3-.759,6.29,6.29,0,0,1-.217-.805l.78.058c-.1.259-.184.522-.288.776a8.345,8.345,0,0,1-.359.755,5.838,5.838,0,0,1-.417.722,6.679,6.679,0,0,1-.534.668,5.644,5.644,0,0,1-.643.576,2.573,2.573,0,0,1-.359.242,3.372,3.372,0,0,1-.376.217,5.6,5.6,0,0,1-.805.325l-.417.1-.417.075a5.843,5.843,0,0,1-.834.046,6.261,6.261,0,0,1-.834-.054,7.7,7.7,0,0,1-.834-.146c-.271-.058-.538-.134-.8-.217a11.491,11.491,0,0,1-1.527-.6c-.25-.113-.492-.238-.73-.367s-.471-.267-.718-.417l.547-.5c.121.25.25.492.359.751a8.343,8.343,0,0,1,.3.78l.125.417.092.417a8.128,8.128,0,0,1,.125.835,7.158,7.158,0,0,1,0,.834,5.672,5.672,0,0,1-.1.834l-.092.417-.125.417a6.465,6.465,0,0,1-.325.784,5.975,5.975,0,0,1-.417.73,8,8,0,0,1-.492.659c-.179.217-.363.417-.555.622s-.4.384-.6.567a12.582,12.582,0,0,1-1.314.989q-.346.225-.7.417c-.242.134-.48.259-.743.376l.029-.5c.2.134.417.255.592.392a6.668,6.668,0,0,1,.555.446l.267.242.246.259a6.439,6.439,0,0,1,.451.559,5.2,5.2,0,0,1,.371.622,4.826,4.826,0,0,1,.284.659l.1.346.075.35a5.194,5.194,0,0,1,.083.713,6.914,6.914,0,0,1-.484,2.766,10.431,10.431,0,0,1-1.331,2.445l-.121-.167.28-.079c.1-.029.192-.042.288-.063.188-.042.38-.054.572-.079a9.662,9.662,0,0,1,1.152,0,13.306,13.306,0,0,1,2.266.317Z" transform="translate(-113.2 -70.84)" fill="#fff" opacity="0.7"/>
      </g>
    </g>
  </g>
</svg>
