<svg xmlns="http://www.w3.org/2000/svg" width="40" height="40" viewBox="0 0 40 40">
  <g id="Group_19444" data-name="Group 19444" transform="translate(-185 -1684)">
    <rect id="Rectangle_7974" data-name="Rectangle 7974" width="40" height="40" transform="translate(185 1684)" fill="none"/>
    <g id="Page-1" transform="translate(193.161 1692.165)">
      <g id="_039---Positive-Interactions" data-name="039---Positive-Interactions" transform="translate(-0.001 -0.008)">
        <path id="Shape" d="M8.822,8.217,3.041,10.483A5.307,5.307,0,1,1,11.614,6.3a4.645,4.645,0,0,1-.029.535Z" transform="translate(-0.999 -0.992)" fill="#dcdcdc"/>
        <path id="Shape-2" data-name="Shape" d="M35.041,42.488A5.292,5.292,0,0,1,33,38.307a4.646,4.646,0,0,1,.029-.535l4.744-4.744A4.646,4.646,0,0,1,38.307,33a5.307,5.307,0,0,1,3.266,9.488Z" transform="translate(-19.936 -19.933)" fill="#dcdcdc"/>
        <path id="Shape-3" data-name="Shape" d="M41.094,37.412A2.414,2.414,0,0,1,42.449,37a2.445,2.445,0,1,1-2.274,1.535Z" transform="translate(-24.078 -22.3)" fill="#fdd7ad"/>
        <path id="Shape-4" data-name="Shape" d="M44.532,51.449v.506a5.245,5.245,0,0,1-1.225.719,5.021,5.021,0,0,1-.816.265,5.32,5.32,0,0,1-2.449,0,5.021,5.021,0,0,1-.816-.265A5.245,5.245,0,0,1,38,51.956v-.506A2.449,2.449,0,0,1,40.449,49h1.633A2.449,2.449,0,0,1,44.532,51.449Z" transform="translate(-22.894 -29.401)" fill="#8b90d4"/>
        <path id="Shape-5" data-name="Shape" d="M41.816,54.408V55.9A5.021,5.021,0,0,1,41,55.633V54.408a.408.408,0,1,1,.816,0Z" transform="translate(-24.67 -32.359)" fill="#656bf7"/>
        <path id="Shape-6" data-name="Shape" d="M49.816,54.408v1.225A5.022,5.022,0,0,1,49,55.9v-1.49a.408.408,0,1,1,.816,0Z" transform="translate(-29.404 -32.359)" fill="#656bf7"/>
        <path id="Shape-7" data-name="Shape" d="M27.247,21.124a6.335,6.335,0,0,1-.127,1.253,6.147,6.147,0,0,1-4.744,4.744,6.335,6.335,0,0,1-1.253.127A6.126,6.126,0,0,1,15,21.124a6.335,6.335,0,0,1,.127-1.253,6.147,6.147,0,0,1,4.744-4.744A6.335,6.335,0,0,1,21.124,15,6.126,6.126,0,0,1,27.247,21.124Z" transform="translate(-9.284 -9.281)" fill="#fff"/>
        <path id="Shape-8" data-name="Shape" d="M11.781,17.69A6.118,6.118,0,0,0,9.8,21.054a4.644,4.644,0,0,1-.535.029,5.266,5.266,0,0,1-1.225-.143,5.021,5.021,0,0,1-.816-.265A5.245,5.245,0,0,1,6,19.956v-.506A2.449,2.449,0,0,1,8.449,17h1.633A2.415,2.415,0,0,1,11.781,17.69Z" transform="translate(-3.958 -10.465)" fill="#5a4bda"/>
        <path id="Shape-9" data-name="Shape" d="M9.816,22.408V23.9A5.021,5.021,0,0,1,9,23.633V22.408a.408.408,0,0,1,.816,0Z" transform="translate(-5.734 -13.423)" fill="#656bf7"/>
        <path id="Shape-10" data-name="Shape" d="M32.379,2.247l.543-.543a.408.408,0,0,0-.577-.577L31.12,2.352a.408.408,0,0,0,0,.577l1.225,1.225a.408.408,0,0,0,.577-.577l-.508-.508a9.809,9.809,0,0,1,9.2,9.778.408.408,0,0,0,.816,0,10.628,10.628,0,0,0-10.052-10.6Z" transform="translate(-18.752 -1.004)" fill="#ff5364"/>
        <path id="Shape-11" data-name="Shape" d="M11.087,38.1a.408.408,0,0,0-.577.577l.508.508a9.809,9.809,0,0,1-9.2-9.778.408.408,0,1,0-.816,0,10.628,10.628,0,0,0,10.052,10.6l-.543.543a.408.408,0,1,0,.577.577L12.311,39.9a.408.408,0,0,0,0-.577Z" transform="translate(-1 -17.566)" fill="#ff5364"/>
        <circle id="Oval" cx="2.147" cy="2.147" r="2.147" transform="translate(3.265 1.833)" fill="#fdd7ad"/>
        <path id="Shape-12" data-name="Shape" d="M25.606,20.3a5.486,5.486,0,0,1-.11,1.085A5.323,5.323,0,0,1,21.388,25.5a5.486,5.486,0,0,1-1.085.11A5.3,5.3,0,0,1,15,20.3a5.486,5.486,0,0,1,.11-1.085,5.323,5.323,0,0,1,4.108-4.108A5.486,5.486,0,0,1,20.3,15,5.3,5.3,0,0,1,25.606,20.3Z" transform="translate(-8.462 -8.461)" fill="#5a4bda"/>
        <path id="Shape-13" data-name="Shape" d="M25.232,29.09a.408.408,0,0,1-.289-.12l-.816-.816a.408.408,0,0,1,.577-.577l.528.528,2.977-2.977a.408.408,0,0,1,.577.577L25.521,28.97A.408.408,0,0,1,25.232,29.09Z" transform="translate(-14.617 -15.206)" fill="#fff"/>
      </g>
    </g>
  </g>
</svg>
