<svg xmlns="http://www.w3.org/2000/svg" width="40" height="40" viewBox="0 0 40 40">
  <g id="Group_19439" data-name="Group 19439" transform="translate(-185 -1684)">
    <rect id="Rectangle_7974" data-name="Rectangle 7974" width="40" height="40" transform="translate(185 1684)" fill="none"/>
    <g id="famous" transform="translate(190 1689)">
      <path id="Path_41401" data-name="Path 41401" d="M137.044,152.439a4.5,4.5,0,1,0-4.088,0A5.064,5.064,0,0,0,128,157.5v6.934h14V157.5A5.064,5.064,0,0,0,137.044,152.439Z" transform="translate(-120 -134.933)" fill="#656bf7"/>
      <path id="Path_41402" data-name="Path 41402" d="M144.252,167.461a4.349,4.349,0,0,0,2.248-3.7,3.858,3.858,0,0,0-3.914-3.8l-.086,0a3.738,3.738,0,0,0-3.856,3.616q0,.092,0,.184a4.223,4.223,0,0,0,2.105,3.7,5.079,5.079,0,0,0-4.748,4.76v7.24h13v-7.24A5.079,5.079,0,0,0,144.252,167.461Z" transform="translate(-127.5 -149.961)" fill="#5a4bda"/>
      <g id="Group_19427" data-name="Group 19427" transform="translate(2.5 3)">
        <path id="Path_41403" data-name="Path 41403" d="M232,48h1v2h-1Z" transform="translate(-220 -48)" fill="#5a4bda"/>
        <path id="Path_41404" data-name="Path 41404" d="M311.032,69.114l1.414-1.414.707.707-1.414,1.414Z" transform="translate(-294.093 -66.469)" fill="#5a4bda"/>
        <path id="Path_41405" data-name="Path 41405" d="M408,464h2v1h-2Z" transform="translate(-385 -438)" fill="#5a4bda"/>
        <path id="Path_41406" data-name="Path 41406" d="M408,384h2v1h-2Z" transform="translate(-385 -363)" fill="#5a4bda"/>
        <path id="Path_41407" data-name="Path 41407" d="M408,304h2v1h-2Z" transform="translate(-385 -288)" fill="#5a4bda"/>
        <path id="Path_41408" data-name="Path 41408" d="M398.318,219.986l1.9-.633.316.949-1.9.633Z" transform="translate(-375.923 -208.643)" fill="#5a4bda"/>
        <path id="Path_41409" data-name="Path 41409" d="M373.469,137.023l1.9-.633.316.949-1.9.633Z" transform="translate(-352.627 -130.866)" fill="#5a4bda"/>
        <path id="Path_41410" data-name="Path 41410" d="M135.033,68.418l.707-.707,1.414,1.414-.707.707Z" transform="translate(-129.093 -66.479)" fill="#5a4bda"/>
        <path id="Path_41411" data-name="Path 41411" d="M40,464h2v1H40Z" transform="translate(-40 -438)" fill="#5a4bda"/>
        <path id="Path_41412" data-name="Path 41412" d="M40,384h2v1H40Z" transform="translate(-40 -363)" fill="#5a4bda"/>
        <path id="Path_41413" data-name="Path 41413" d="M40,304h2v1H40Z" transform="translate(-40 -288)" fill="#5a4bda"/>
        <path id="Path_41414" data-name="Path 41414" d="M46.295,220.3l.316-.949,1.9.632-.316.949Z" transform="translate(-45.902 -208.638)" fill="#5a4bda"/>
        <path id="Path_41415" data-name="Path 41415" d="M71.108,137.357l.316-.949,1.9.633-.316.949Z" transform="translate(-69.164 -130.882)" fill="#5a4bda"/>
      </g>
      <g id="Group_19428" data-name="Group 19428">
        <path id="Path_41416" data-name="Path 41416" d="M402.5,5a.5.5,0,0,1-.5-.5h0A1.5,1.5,0,0,0,400.5,3a.5.5,0,0,1,0-1A1.5,1.5,0,0,0,402,.5a.5.5,0,0,1,1,0A1.5,1.5,0,0,0,404.5,2a.5.5,0,0,1,0,1A1.5,1.5,0,0,0,403,4.5a.5.5,0,0,1-.5.5ZM402,2.5a2.52,2.52,0,0,1,.5.5,2.522,2.522,0,0,1,.5-.5,2.522,2.522,0,0,1-.5-.5A2.52,2.52,0,0,1,402,2.5Z" transform="translate(-375)" fill="#656bf7"/>
        <path id="Path_41417" data-name="Path 41417" d="M2.5,5A.5.5,0,0,1,2,4.5H2A1.5,1.5,0,0,0,.5,3a.5.5,0,0,1,0-1A1.5,1.5,0,0,0,2,.5a.5.5,0,0,1,1,0A1.5,1.5,0,0,0,4.5,2a.5.5,0,0,1,0,1A1.5,1.5,0,0,0,3,4.5a.5.5,0,0,1-.5.5ZM2,2.5a2.521,2.521,0,0,1,.5.5A2.521,2.521,0,0,1,3,2.5,2.521,2.521,0,0,1,2.5,2,2.521,2.521,0,0,1,2,2.5Z" fill="#656bf7"/>
      </g>
    </g>
  </g>
</svg>
