<svg xmlns="http://www.w3.org/2000/svg" width="40" height="40" viewBox="0 0 40 40">
  <g id="Group_19446" data-name="Group 19446" transform="translate(-185 -1684)">
    <rect id="Rectangle_7974" data-name="Rectangle 7974" width="40" height="40" transform="translate(185 1684)" fill="none"/>
    <g id="top-10" transform="translate(193.002 1691.998)">
      <path id="Path_41427" data-name="Path 41427" d="M24,12a11.966,11.966,0,0,1-3.667,8.634c-.655.632-3.148-1.061-3.933-.591-.445.268.857,2.759.377,2.968h0A12.018,12.018,0,1,1,24,12Z" transform="translate(-0.003)" fill="#dcdcdc"/>
      <path id="Path_41428" data-name="Path 41428" d="M23.886,15.111a2.416,2.416,0,0,1-.625,1L20.31,18.991a2.431,2.431,0,0,0-.7,2.153l.7,4.063c.011.062.019.124.025.185a12.021,12.021,0,0,1-3.556,2.377L13.13,25.852a2.43,2.43,0,0,0-2.263,0L7.221,27.769h0a2.432,2.432,0,0,1-3.553-2.378c.006-.061.014-.123.025-.185l.7-4.063a2.431,2.431,0,0,0-.7-2.153L.735,16.114a2.416,2.416,0,0,1-.625-1,2.464,2.464,0,0,1,.615-2.477,2.4,2.4,0,0,1,1.358-.668l4.079-.593a2.431,2.431,0,0,0,1.831-1.33l1.824-3.7a2.432,2.432,0,0,1,4.361,0L16,10.043a2.431,2.431,0,0,0,1.831,1.33l4.079.593a2.4,2.4,0,0,1,1.358.668,2.464,2.464,0,0,1,.615,2.477Z" transform="translate(0 -4.756)" fill="#5a4bda"/>
      <g id="Group_19430" data-name="Group 19430" transform="translate(-0.002 0.235)">
        <path id="Path_41429" data-name="Path 41429" d="M6.444,25.208l.7-4.063a2.432,2.432,0,0,0-.7-2.152L3.49,16.116a2.432,2.432,0,0,1,1.348-4.148l4.079-.593a2.432,2.432,0,0,0,1.831-1.33l1.824-3.7a2.415,2.415,0,0,1,.8-.934,2.436,2.436,0,0,0-3.557.934L8,10.045a2.432,2.432,0,0,1-1.831,1.33l-4.079.593A2.432,2.432,0,0,0,.737,16.116l2.952,2.877a2.432,2.432,0,0,1,.7,2.152l-.7,4.063A2.432,2.432,0,0,0,7.22,27.772l.261-.137A2.406,2.406,0,0,1,6.444,25.208Z" transform="translate(0 -4.993)" fill="#656bf7"/>
        <path id="Path_41430" data-name="Path 41430" d="M290.152,445.536a11.965,11.965,0,0,1-1.39.716h0l-3.4-1.788.245-.128a2.43,2.43,0,0,1,2.263,0Z" transform="translate(-271.984 -423.475)" fill="#656bf7"/>
      </g>
      <g id="Group_19438" data-name="Group 19438" transform="translate(15.973 0.167)">
        <path id="Path_41438" data-name="Path 41438" d="M341.47,6.288l.113.012a.759.759,0,0,0,.826-.626l.209-1.21a.759.759,0,0,0-.671-.885l-.28-.029a.759.759,0,0,0-.837.729l-.042,1.227A.759.759,0,0,0,341.47,6.288Z" transform="translate(-340.788 -3.546)" fill="#5a4bda"/>
        <path id="Path_41439" data-name="Path 41439" d="M402.257,28.906l.092.066a.759.759,0,0,0,1.029-.129l.786-.943a.759.759,0,0,0-.138-1.1l-.228-.165a.759.759,0,0,0-1.089.213l-.65,1.042A.759.759,0,0,0,402.257,28.906Z" transform="translate(-399.076 -25.414)" fill="#5a4bda"/>
        <path id="Path_41440" data-name="Path 41440" d="M440.606,88.918l.046.1a.759.759,0,0,0,.955.4L442.761,89a.759.759,0,0,0,.431-1.023l-.115-.257a.759.759,0,0,0-1.05-.36l-1.084.577A.759.759,0,0,0,440.606,88.918Z" transform="translate(-435.864 -83.346)" fill="#5a4bda"/>
      </g>
    </g>
  </g>
</svg>
