<svg xmlns="http://www.w3.org/2000/svg" width="24" height="24" viewBox="0 0 24 24"><circle cx="12" cy="12" r="12" fill="#4875b4"/><g transform="translate(5.67 5.684)"><path d="M72.463,69.895V65.262c0-2.267-.488-4.012-3.137-4.012a2.748,2.748,0,0,0-2.477,1.361h-.036V61.462H64.3v8.433h2.615V65.718c0-1.105.208-2.163,1.579-2.163s1.361,1.263,1.361,2.234v4.105Z" transform="translate(-59.817 -57.263)" fill="#fff"/><path d="M37.32,62.59h2.618v8.433H37.32Z" transform="translate(-37.097 -58.392)" fill="#fff"/><path d="M37.44,36a1.516,1.516,0,1,0,1.073.443A1.524,1.524,0,0,0,37.44,36Z" transform="translate(-35.91 -36)" fill="#fff"/></g></svg>