<svg xmlns="http://www.w3.org/2000/svg" xmlns:xlink="http://www.w3.org/1999/xlink" width="783.613" height="74.34" viewBox="0 0 783.613 74.34">
  <defs>
    <linearGradient id="linear-gradient" x1="0.5" x2="0.5" y2="1" gradientUnits="objectBoundingBox">
      <stop offset="0" stop-color="#5a4bda"/>
      <stop offset="1" stop-color="#eb427e"/>
    </linearGradient>
  </defs>
  <g id="Group_20364" data-name="Group 20364" transform="translate(-8674.869 18552.32)">
    <path id="Union_12" data-name="Union 12" d="M-3170.181,560.237l.991-.133c.134,1,.236,2.012.3,3.02l-1,.066C-3169.951,562.2-3170.05,561.211-3170.181,560.237Zm-1.191-5.8.962-.272c.27.961.511,1.953.714,2.951l-.979.2C-3170.874,556.34-3171.109,555.369-3171.372,554.434Zm-2.043-5.549.907-.422c.42.906.812,1.849,1.165,2.808l-.938.346C-3172.626,550.683-3173.006,549.766-3173.416,548.885Zm-2.958-5.106.815-.58c.582.818,1.136,1.681,1.646,2.563l-.866.5C-3175.272,545.408-3175.809,544.572-3176.374,543.779Zm-3.865-4.449.687-.727c.735.7,1.444,1.435,2.109,2.2l-.755.657C-3178.84,540.719-3179.526,540-3180.238,539.33Zm-4.656-3.614.535-.846c.861.548,1.7,1.135,2.494,1.751l-.613.791C-3183.248,536.817-3184.06,536.246-3184.894,535.717Zm-5.249-2.711.383-.924c.945.391,1.873.82,2.759,1.277l-.457.889C-3188.321,533.8-3189.223,533.387-3190.143,533.006Zm-5.625-1.852.246-.97c.993.252,1.973.535,2.914.844l-.312.95C-3193.839,531.678-3194.8,531.4-3195.768,531.154Zm-5.834-1.1.13-.992c1.014.133,2.02.293,2.991.474l-.185.983C-3199.618,530.337-3200.606,530.18-3201.6,530.051Zm-5.93-.48.035-1c1.02.037,2.034.093,3.017.172l-.079,1C-3205.528,529.662-3206.528,529.605-3207.531,529.571Zm-5.98-.044v-1h3.01v1Zm-6,0v-1h3.008v1Zm-6,0v-1h3v1Zm-6.007,0v-1h3v1Zm-6,0v-1h3v1Zm-6,0v-1h3v1Zm-6,0v-1h3v1Zm-6,0v-1h3v1Zm-6,0v-1h3v1Zm-6,0v-1h3v1Zm-6,0v-1h3v1Zm-6,0v-1h3v1Zm-6,0v-1h3v1Zm-6,0v-1h3v1Zm-6,0v-1h3v1Zm-6,0v-1h3v1Zm-6,0v-1h3v1Zm-6,0v-1h3v1Zm-6,0v-1h3v1Zm-6,0v-1h3v1Zm-6,0v-1h3v1Zm-6,0v-1h3v1Zm-6,0v-1h3v1Zm-6,0v-1h3v1Zm-6,0v-1h3v1Zm-6,0v-1h3v1Zm-6,0v-1h3v1Zm-6,0v-1h3v1Zm-6,0v-1h3v1Zm-6,0v-1h3v1Zm-6,0v-1h3v1Zm-6,0v-1h3v1Zm-6.005,0v-1h3v1Zm-6,0v-1h3v1Zm-6,0v-1h3v1Zm-6,0v-1h3v1Zm-6,0v-1h3v1Zm-6,0v-1h3v1Zm-6,0v-1h3v1Zm-6.007,0v-1h3.009v1Zm-6,0v-1h3.012v1Zm-6,0v-1h3v1Zm-5.5,0h-1.723v-1h4.219v1Zm-7.731,0v-1h3.013v1Zm-5.985,0v-1h3v1Zm-6.005,0v-1h3v1Zm-6.014,0v-1h3.006v1Zm-5.981,0v-1h3v1Zm-6.019,0v-1h3.012v1Zm-5.985,0v-1h3v1Zm-6,0v-1h2.984v1Zm-6.009,0v-1h3v1Zm-6.008,0v-1h3.017v1Zm-5.992,0v-1h3.008v1Zm-6,0v-1h3v1Zm-6,0v-1h2.994v1Zm-6,0v-1h2.991v1Zm-6,0v-1h2.989v1Zm-6,0v-1h2.988v1Zm-6,0v-1h2.989v1Zm-6,0v-1h2.991v1Zm-6,0v-1h2.993v1Zm-6,0v-1h2.995v1Zm-6,0v-1h3v1Zm-6,0v-1h3v1Zm-6,0v-1h3.006v1Zm-6,0v-1h3.009v1Zm-6,0v-1h3v1Zm-6,0v-1h3v1Zm-6,0v-1h3v1Zm-6,0v-1h3v1Zm-6,0v-1h3v1Zm-6,0v-1h3v1Zm-6,0v-1h3v1Zm-6,0v-1h3v1Zm-6,0v-1h3v1Zm-6,0v-1h3v1Zm-6,0v-1h3v1Zm-6,0v-1h3v1Zm-6,0v-1h3v1Zm-6,0v-1h3v1Zm-6,0v-1h3v1Zm-6,0v-1h3v1Zm-6,0v-1h3v1Zm-6,0v-1h3v1Zm-6,0v-1h3v1Zm-6,0v-1h3v1Zm-6,0v-1h3v1Zm-6,0v-1h3v1Zm-6,0v-1h3v1Zm-6,0v-1h3v1Zm-6,0v-1h3v1Zm-6,0v-1h3.008v1Zm-6,0v-1h3.008v1Zm-6,0v-1h3v1Zm-6,0v-1h3v1Zm-6,0v-1h3v1Zm-6,0v-1h2.995v1Zm-6,0v-1h2.992v1Zm-6,0v-1h2.99v1Zm-6,0v-1h2.989v1Zm-6,0v-1h2.99v1Zm-6,0v-1h2.991v1Zm-6,0v-1h2.995v1Zm-6,0v-1h3v1Zm-6,0v-1h3.006v1Zm-6,0v-1h3.015v1Zm-6,0v-1h3.009v1Zm-5.987,0v-1h2.986v1Zm-6.013,0v-1h3v1Zm-6,0v-1h3.015v1Zm-5.988,0v-1h2.987v1Zm-6.014,0v-1h3.011v1Zm-6,0v-1h3v1Zm-6,0v-1h3v1Zm-6,0v-1h3v1Zm-6,0v-1h3.023v1Zm-6.009-.214.079-1c.967.077,1.967.134,2.972.17l-.035,1C-3914.808,529.448-3915.822,529.39-3916.8,529.313Zm-6-.792.185-.982c.952.178,1.94.336,2.935.465l-.129.992C-3920.828,528.863-3921.833,528.7-3922.8,528.521Zm-5.873-1.494.312-.951c.92.3,1.877.58,2.848.824l-.246.971C-3926.756,527.62-3927.737,527.336-3928.677,527.027Zm-5.607-2.332.458-.889c.861.443,1.764.862,2.684,1.242l-.383.924C-3932.47,525.582-3933.4,525.153-3934.284,524.7Zm-5.135-3.262.613-.792c.769.6,1.582,1.167,2.416,1.7l-.536.845C-3937.787,522.637-3938.625,522.049-3939.42,521.434Zm-4.424-4.182.756-.656c.642.74,1.328,1.455,2.04,2.129l-.686.726C-3942.47,518.755-3943.179,518.016-3943.844,517.252Zm-3.528-4.959.865-.5c.495.855,1.031,1.691,1.595,2.485l-.815.579C-3946.309,514.037-3946.862,513.174-3947.372,512.293Zm-2.569-5.509.938-.346c.343.933.724,1.852,1.134,2.733l-.906.422C-3949.2,508.685-3949.589,507.742-3949.941,506.784Zm-1.649-5.843.979-.2c.2.974.435,1.945.7,2.881l-.963.271C-3951.146,502.932-3951.385,501.939-3951.59,500.941Zm-.81-6.009,1-.066c.066.984.167,1.978.3,2.953l-.991.133C-3952.229,496.955-3952.331,495.94-3952.4,494.932Zm-.1-3.031a29.923,29.923,0,0,1,.134-3.051l.994.114a29.4,29.4,0,0,0-.128,2.939Zm1.128-2.937-.5-.058Z" transform="translate(12627.369 -19041.17)" fill="url(#linear-gradient)"/>
  </g>
</svg>
