<svg width="358" height="387" viewBox="0 0 358 387" fill="none" xmlns="http://www.w3.org/2000/svg">
<path d="M9.2928 163.502C11.5632 161.601 12.4317 160.638 12.0189 160.483C11.804 160.406 11.7094 160.423 11.331 160.604C10.6 160.965 7.94263 163.235 7.94263 163.502C7.94263 163.872 8.83701 163.88 9.2928 163.502Z" fill="#FFBF5F"/>
<path d="M3.33302 163.571C3.61682 163.381 3.59962 163.347 2.49884 162.152C1.91405 161.507 1.43249 161.102 1.0799 160.948C0.598311 160.733 0.366107 161.025 0.555303 161.266C2.17205 163.347 2.84283 163.897 3.33302 163.571Z" fill="#FFBF5F"/>
<path d="M10.9868 166.374C10.4622 166.219 7.77915 165.368 7.58135 165.291C7.48675 165.256 7.41795 165.084 7.38355 164.792C7.09976 162.607 6.65248 160.363 6.45469 160.113C6.30849 159.924 5.8097 159.984 5.6721 160.199C5.5345 160.414 4.89812 162.59 4.51972 164.173L4.27041 165.205C-0.614324 166.753 -0.880936 166.718 1.32922 167.398L3.28143 168C4.39081 168.344 4.41653 168.352 4.47672 168.627C4.56272 169.023 5.12171 170.949 5.33671 171.869C5.7925 173.847 6.72137 172.626 7.53835 168.946L7.72755 168.103C7.83074 168.086 8.48424 168.025 11.305 167.415C11.95 167.269 11.7608 166.598 10.9868 166.374ZM9.76562 166.796C9.69682 166.856 7.81346 167.312 7.44367 167.312C6.99647 167.312 6.89328 167.527 6.38589 169.548C6.05049 170.881 6.02478 170.906 5.83558 170.132C5.60339 169.16 5.13031 168.025 5.07011 167.759C5.01851 167.518 4.53692 167.346 2.67076 166.899C1.73342 166.675 1.58722 166.598 1.93977 166.495C2.37837 166.366 4.48532 165.678 4.72612 165.678C4.95831 165.678 5.15611 165.506 5.22491 165.248L5.8957 162.633C6.01609 162.177 6.01618 162.177 6.35157 163.958C6.73857 165.961 6.69548 165.875 7.31467 166.004C8.08865 166.168 9.84302 166.727 9.76562 166.796Z" fill="#FFBF5F"/>
<path d="M8.20044 169.083C8.20044 169.272 10.4708 171.568 10.789 171.697C11.4598 171.973 11.6318 171.611 11.0986 171.035C9.66241 169.461 8.20044 168.481 8.20044 169.083Z" fill="#FFBF5F"/>
<path d="M1.57855 169.634C-0.0726209 170.752 -0.261826 171.01 0.563758 171.01C0.96795 171.01 3.52207 169.238 3.44467 169.006C3.32427 168.645 2.74808 168.834 1.57855 169.634Z" fill="#FFBF5F"/>
<path d="M277.293 241.502C279.563 239.601 280.432 238.638 280.019 238.483C279.804 238.406 279.709 238.423 279.331 238.604C278.6 238.965 275.943 241.235 275.943 241.502C275.943 241.872 276.837 241.88 277.293 241.502Z" fill="#FFBF5F"/>
<path d="M271.333 241.571C271.617 241.381 271.6 241.347 270.499 240.152C269.914 239.507 269.432 239.102 269.08 238.948C268.598 238.733 268.366 239.025 268.555 239.266C270.172 241.347 270.843 241.897 271.333 241.571Z" fill="#FFBF5F"/>
<path d="M278.987 244.374C278.462 244.219 275.779 243.368 275.581 243.291C275.487 243.256 275.418 243.084 275.384 242.792C275.1 240.607 274.652 238.363 274.455 238.113C274.308 237.924 273.81 237.984 273.672 238.199C273.535 238.414 272.898 240.59 272.52 242.173L272.27 243.205C267.386 244.753 267.119 244.718 269.329 245.398L271.281 246C272.391 246.344 272.417 246.352 272.477 246.627C272.563 247.023 273.122 248.949 273.337 249.869C273.792 251.847 274.721 250.626 275.538 246.946L275.728 246.103C275.831 246.086 276.484 246.025 279.305 245.415C279.95 245.269 279.761 244.598 278.987 244.374ZM277.766 244.796C277.697 244.856 275.813 245.312 275.444 245.312C274.996 245.312 274.893 245.527 274.386 247.548C274.05 248.881 274.025 248.906 273.836 248.132C273.603 247.16 273.13 246.025 273.07 245.759C273.019 245.518 272.537 245.346 270.671 244.899C269.733 244.675 269.587 244.598 269.94 244.495C270.378 244.366 272.485 243.678 272.726 243.678C272.958 243.678 273.156 243.506 273.225 243.248L273.896 240.633C274.016 240.177 274.016 240.177 274.352 241.958C274.739 243.961 274.695 243.875 275.315 244.004C276.089 244.168 277.843 244.727 277.766 244.796Z" fill="#FFBF5F"/>
<path d="M276.2 247.083C276.2 247.272 278.471 249.568 278.789 249.697C279.46 249.973 279.632 249.611 279.099 249.035C277.662 247.461 276.2 246.481 276.2 247.083Z" fill="#FFBF5F"/>
<path d="M269.579 247.634C267.927 248.752 267.738 249.01 268.564 249.01C268.968 249.01 271.522 247.238 271.445 247.006C271.324 246.645 270.748 246.834 269.579 247.634Z" fill="#FFBF5F"/>
<path d="M143.293 131.502C145.563 129.601 146.432 128.638 146.019 128.483C145.804 128.406 145.709 128.423 145.331 128.604C144.6 128.965 141.943 131.235 141.943 131.502C141.943 131.872 142.837 131.88 143.293 131.502Z" fill="#FFBF5F"/>
<path d="M137.333 131.571C137.617 131.381 137.6 131.347 136.499 130.152C135.914 129.507 135.432 129.102 135.08 128.948C134.598 128.733 134.366 129.025 134.555 129.266C136.172 131.347 136.843 131.897 137.333 131.571Z" fill="#FFBF5F"/>
<path d="M144.987 134.374C144.462 134.219 141.779 133.368 141.581 133.291C141.487 133.256 141.418 133.084 141.384 132.792C141.1 130.607 140.652 128.363 140.455 128.113C140.308 127.924 139.81 127.984 139.672 128.199C139.535 128.414 138.898 130.59 138.52 132.173L138.27 133.205C133.386 134.753 133.119 134.718 135.329 135.398L137.281 136C138.391 136.344 138.417 136.352 138.477 136.627C138.563 137.023 139.122 138.949 139.337 139.869C139.792 141.847 140.721 140.626 141.538 136.946L141.728 136.103C141.831 136.086 142.484 136.025 145.305 135.415C145.95 135.269 145.761 134.598 144.987 134.374ZM143.766 134.796C143.697 134.856 141.813 135.312 141.444 135.312C140.996 135.312 140.893 135.527 140.386 137.548C140.05 138.881 140.025 138.906 139.836 138.132C139.603 137.16 139.13 136.025 139.07 135.759C139.019 135.518 138.537 135.346 136.671 134.899C135.733 134.675 135.587 134.598 135.94 134.495C136.378 134.366 138.485 133.678 138.726 133.678C138.958 133.678 139.156 133.506 139.225 133.248L139.896 130.633C140.016 130.177 140.016 130.177 140.352 131.958C140.739 133.961 140.695 133.875 141.315 134.004C142.089 134.168 143.843 134.727 143.766 134.796Z" fill="#FFBF5F"/>
<path d="M142.2 137.083C142.2 137.272 144.471 139.568 144.789 139.697C145.46 139.973 145.632 139.611 145.099 139.035C143.662 137.461 142.2 136.481 142.2 137.083Z" fill="#FFBF5F"/>
<path d="M135.579 137.634C133.927 138.752 133.738 139.01 134.564 139.01C134.968 139.01 137.522 137.238 137.445 137.006C137.324 136.645 136.748 136.834 135.579 137.634Z" fill="#FFBF5F"/>
<path d="M300.293 22.5019C302.563 20.6013 303.432 19.6381 303.019 19.4833C302.804 19.4059 302.709 19.4231 302.331 19.6037C301.6 19.9649 298.943 22.2353 298.943 22.5019C298.943 22.8717 299.837 22.8803 300.293 22.5019Z" fill="#FFBF5F"/>
<path d="M294.333 22.5707C294.617 22.3815 294.6 22.3471 293.499 21.1517C292.914 20.5067 292.432 20.1025 292.08 19.9477C291.598 19.7327 291.366 20.0251 291.555 20.2659C293.172 22.3471 293.843 22.8975 294.333 22.5707Z" fill="#FFBF5F"/>
<path d="M301.987 25.3742C301.462 25.2194 298.779 24.368 298.581 24.2906C298.487 24.2562 298.418 24.0842 298.384 23.7918C298.1 21.6075 297.652 19.3629 297.455 19.1135C297.308 18.9243 296.81 18.9845 296.672 19.1995C296.535 19.4145 295.898 21.5903 295.52 23.1726L295.27 24.2046C290.386 25.7526 290.119 25.7182 292.329 26.3976L294.281 26.9996C295.391 27.3436 295.417 27.3521 295.477 27.6273C295.563 28.0229 296.122 29.9493 296.337 30.8695C296.792 32.8474 297.721 31.6263 298.538 27.9455L298.728 27.1028C298.831 27.0856 299.484 27.0254 302.305 26.4148C302.95 26.2686 302.761 25.5978 301.987 25.3742ZM300.766 25.7956C300.697 25.8558 298.813 26.3116 298.444 26.3116C297.996 26.3116 297.893 26.5266 297.386 28.5475C297.05 29.8805 297.025 29.9062 296.836 29.1322C296.603 28.1605 296.13 27.0254 296.07 26.7588C296.019 26.518 295.537 26.346 293.671 25.8988C292.733 25.6752 292.587 25.5978 292.94 25.4946C293.378 25.3656 295.485 24.6776 295.726 24.6776C295.958 24.6776 296.156 24.5056 296.225 24.2476L296.896 21.6333C297.016 21.1775 297.016 21.1775 297.352 22.9576C297.739 24.9614 297.695 24.8753 298.315 25.0043C299.089 25.1677 300.843 25.7268 300.766 25.7956Z" fill="#FFBF5F"/>
<path d="M299.2 28.0831C299.2 28.2723 301.471 30.5684 301.789 30.6974C302.46 30.9726 302.632 30.6113 302.099 30.0352C300.662 28.4614 299.2 27.4811 299.2 28.0831Z" fill="#FFBF5F"/>
<path d="M292.579 28.6336C290.927 29.7515 290.738 30.0095 291.564 30.0095C291.968 30.0095 294.522 28.238 294.445 28.0058C294.324 27.6446 293.748 27.8338 292.579 28.6336Z" fill="#FFBF5F"/>
<path d="M219.293 377.502C221.563 375.601 222.432 374.638 222.019 374.483C221.804 374.406 221.709 374.423 221.331 374.604C220.6 374.965 217.943 377.235 217.943 377.502C217.943 377.872 218.837 377.88 219.293 377.502Z" fill="#FFBF5F"/>
<path d="M213.333 377.571C213.617 377.381 213.6 377.347 212.499 376.152C211.914 375.507 211.432 375.102 211.08 374.948C210.598 374.733 210.366 375.025 210.555 375.266C212.172 377.347 212.843 377.897 213.333 377.571Z" fill="#FFBF5F"/>
<path d="M220.987 380.374C220.462 380.219 217.779 379.368 217.581 379.291C217.487 379.256 217.418 379.084 217.384 378.792C217.1 376.607 216.652 374.363 216.455 374.113C216.308 373.924 215.81 373.984 215.672 374.199C215.535 374.414 214.898 376.59 214.52 378.173L214.27 379.205C209.386 380.753 209.119 380.718 211.329 381.398L213.281 382C214.391 382.344 214.417 382.352 214.477 382.627C214.563 383.023 215.122 384.949 215.337 385.869C215.792 387.847 216.721 386.626 217.538 382.946L217.728 382.103C217.831 382.086 218.484 382.025 221.305 381.415C221.95 381.269 221.761 380.598 220.987 380.374ZM219.766 380.796C219.697 380.856 217.813 381.312 217.444 381.312C216.996 381.312 216.893 381.527 216.386 383.548C216.05 384.881 216.025 384.906 215.836 384.132C215.603 383.16 215.13 382.025 215.07 381.759C215.019 381.518 214.537 381.346 212.671 380.899C211.733 380.675 211.587 380.598 211.94 380.495C212.378 380.366 214.485 379.678 214.726 379.678C214.958 379.678 215.156 379.506 215.225 379.248L215.896 376.633C216.016 376.177 216.016 376.177 216.352 377.958C216.739 379.961 216.695 379.875 217.315 380.004C218.089 380.168 219.843 380.727 219.766 380.796Z" fill="#FFBF5F"/>
<path d="M218.2 383.083C218.2 383.272 220.471 385.568 220.789 385.697C221.46 385.973 221.632 385.611 221.099 385.035C219.662 383.461 218.2 382.481 218.2 383.083Z" fill="#FFBF5F"/>
<path d="M211.579 383.634C209.927 384.752 209.738 385.01 210.564 385.01C210.968 385.01 213.522 383.238 213.445 383.006C213.324 382.645 212.748 382.834 211.579 383.634Z" fill="#FFBF5F"/>
<path d="M354.293 334.502C356.563 332.601 357.432 331.638 357.019 331.483C356.804 331.406 356.709 331.423 356.331 331.604C355.6 331.965 352.943 334.235 352.943 334.502C352.943 334.872 353.837 334.88 354.293 334.502Z" fill="#FFBF5F"/>
<path d="M348.333 334.571C348.617 334.381 348.6 334.347 347.499 333.152C346.914 332.507 346.432 332.102 346.08 331.948C345.598 331.733 345.366 332.025 345.555 332.266C347.172 334.347 347.843 334.897 348.333 334.571Z" fill="#FFBF5F"/>
<path d="M355.987 337.374C355.462 337.219 352.779 336.368 352.581 336.291C352.487 336.256 352.418 336.084 352.384 335.792C352.1 333.607 351.652 331.363 351.455 331.113C351.308 330.924 350.81 330.984 350.672 331.199C350.535 331.414 349.898 333.59 349.52 335.173L349.27 336.205C344.386 337.753 344.119 337.718 346.329 338.398L348.281 339C349.391 339.344 349.417 339.352 349.477 339.627C349.563 340.023 350.122 341.949 350.337 342.869C350.792 344.847 351.721 343.626 352.538 339.946L352.728 339.103C352.831 339.086 353.484 339.025 356.305 338.415C356.95 338.269 356.761 337.598 355.987 337.374ZM354.766 337.796C354.697 337.856 352.813 338.312 352.444 338.312C351.996 338.312 351.893 338.527 351.386 340.548C351.05 341.881 351.025 341.906 350.836 341.132C350.603 340.16 350.13 339.025 350.07 338.759C350.019 338.518 349.537 338.346 347.671 337.899C346.733 337.675 346.587 337.598 346.94 337.495C347.378 337.366 349.485 336.678 349.726 336.678C349.958 336.678 350.156 336.506 350.225 336.248L350.896 333.633C351.016 333.177 351.016 333.177 351.352 334.958C351.739 336.961 351.695 336.875 352.315 337.004C353.089 337.168 354.843 337.727 354.766 337.796Z" fill="#FFBF5F"/>
<path d="M353.2 340.083C353.2 340.272 355.471 342.568 355.789 342.697C356.46 342.973 356.632 342.611 356.099 342.035C354.662 340.461 353.2 339.481 353.2 340.083Z" fill="#FFBF5F"/>
<path d="M346.579 340.634C344.927 341.752 344.738 342.01 345.564 342.01C345.968 342.01 348.522 340.238 348.445 340.006C348.324 339.645 347.748 339.834 346.579 340.634Z" fill="#FFBF5F"/>
<path d="M47.587 50.8982C50.3295 48.6024 51.3787 47.4389 50.8801 47.2519C50.6203 47.1584 50.5061 47.1792 50.049 47.3973C49.166 47.8336 45.9561 50.5761 45.9561 50.8982C45.9561 51.3449 47.0364 51.3552 47.587 50.8982Z" fill="#FFBF5F"/>
<path d="M40.388 50.9813C40.7308 50.7528 40.71 50.7112 39.3803 49.2673C38.6739 48.4881 38.0922 47.9998 37.6663 47.8129C37.0846 47.5531 36.8041 47.9064 37.0326 48.1972C38.9856 50.7112 39.7958 51.3761 40.388 50.9813Z" fill="#FFBF5F"/>
<path d="M49.6333 54.3677C48.9997 54.1807 45.7587 53.1523 45.5197 53.0588C45.4055 53.0172 45.3223 52.8095 45.2808 52.4563C44.938 49.8177 44.3977 47.1063 44.1588 46.805C43.9822 46.5765 43.3797 46.6492 43.2134 46.9089C43.0472 47.1686 42.2785 49.7969 41.8214 51.7083L41.5203 52.9549C35.6197 54.8248 35.2977 54.7832 37.9675 55.6039L40.3256 56.3311C41.6657 56.7466 41.6968 56.7569 41.7695 57.0893C41.8734 57.5671 42.5486 59.8942 42.8083 61.0057C43.3589 63.395 44.4809 61.9199 45.4678 57.4738L45.6963 56.4557C45.821 56.4349 46.6104 56.3622 50.0177 55.6247C50.7968 55.4481 50.5683 54.6378 49.6333 54.3677ZM48.1582 54.8767C48.0751 54.9494 45.8001 55.5 45.3534 55.5C44.8132 55.5 44.6886 55.7597 44.0757 58.2009C43.6705 59.8111 43.6395 59.8422 43.4109 58.9072C43.1304 57.7334 42.559 56.3622 42.4863 56.0402C42.4239 55.7493 41.8422 55.5416 39.588 55.0014C38.4557 54.7313 38.2791 54.6378 38.705 54.5131C39.2348 54.3573 41.7799 53.5262 42.0707 53.5262C42.3512 53.5262 42.5902 53.3185 42.6733 53.0068L43.4835 49.8488C43.629 49.2983 43.6291 49.2983 44.0342 51.4486C44.5017 53.8691 44.4496 53.7651 45.1976 53.9209C46.1325 54.1183 48.2517 54.7936 48.1582 54.8767Z" fill="#FFBF5F"/>
<path d="M46.2678 57.64C46.2678 57.8686 49.0103 60.6422 49.3947 60.798C50.2049 61.1304 50.4127 60.694 49.7686 59.998C48.0338 58.097 46.2678 56.9128 46.2678 57.64Z" fill="#FFBF5F"/>
<path d="M38.2687 58.3048C36.2741 59.6553 36.0456 59.9669 37.0429 59.9669C37.5311 59.9669 40.6163 57.827 40.5229 57.5465C40.3774 57.1102 39.6814 57.3387 38.2687 58.3048Z" fill="#FFBF5F"/>
<path d="M180.293 3.50186C182.563 1.60129 183.432 0.638098 183.019 0.483301C182.804 0.405903 182.709 0.423094 182.331 0.603691C181.6 0.964883 178.943 3.23526 178.943 3.50186C178.943 3.87165 179.837 3.88025 180.293 3.50186Z" fill="#FFBF5F"/>
<path d="M174.333 3.57067C174.617 3.38147 174.6 3.34707 173.499 2.15169C172.914 1.50666 172.432 1.10247 172.08 0.947674C171.598 0.732679 171.366 1.02509 171.555 1.26589C173.172 3.34707 173.843 3.89746 174.333 3.57067Z" fill="#FFBF5F"/>
<path d="M181.987 6.37419C181.462 6.21939 178.779 5.36801 178.581 5.29061C178.487 5.25621 178.418 5.08422 178.384 4.79182C178.1 2.60747 177.652 0.362858 177.455 0.113463C177.308 -0.0757337 176.81 -0.0155349 176.672 0.199461C176.535 0.414457 175.898 2.59027 175.52 4.17263L175.27 5.20461C170.386 6.75258 170.119 6.71818 172.329 7.39757L174.281 7.99956C175.391 8.34355 175.417 8.35207 175.477 8.62726C175.563 9.02285 176.122 10.9493 176.337 11.8695C176.792 13.8474 177.721 12.6263 178.538 8.94554L178.728 8.10276C178.831 8.08556 179.484 8.02536 182.305 7.41477C182.95 7.26857 182.761 6.59779 181.987 6.37419ZM180.766 6.79558C180.697 6.85578 178.813 7.31157 178.444 7.31157C177.996 7.31157 177.893 7.52657 177.386 9.54753C177.05 10.8805 177.025 10.9062 176.836 10.1322C176.603 9.16045 176.13 8.02536 176.07 7.75876C176.019 7.51797 175.537 7.34597 173.671 6.89878C172.733 6.67519 172.587 6.59779 172.94 6.49459C173.378 6.36559 175.485 5.67761 175.726 5.67761C175.958 5.67761 176.156 5.50561 176.225 5.24761L176.896 2.63326C177.016 2.17747 177.016 2.17747 177.352 3.95764C177.739 5.9614 177.695 5.87531 178.315 6.00431C179.089 6.16771 180.843 6.72678 180.766 6.79558Z" fill="#FFBF5F"/>
<path d="M179.2 9.08308C179.2 9.27227 181.471 11.5684 181.789 11.6974C182.46 11.9726 182.632 11.6113 182.099 11.0352C180.662 9.46139 179.2 8.48109 179.2 9.08308Z" fill="#FFBF5F"/>
<path d="M172.579 9.63357C170.927 10.7515 170.738 11.0095 171.564 11.0095C171.968 11.0095 174.522 9.23798 174.445 9.00578C174.324 8.64459 173.748 8.83378 172.579 9.63357Z" fill="#FFBF5F"/>
<path d="M341.78 106.439C344.659 104.03 345.76 102.809 345.236 102.613C344.964 102.515 344.844 102.536 344.364 102.765C343.438 103.223 340.069 106.101 340.069 106.439C340.069 106.908 341.203 106.919 341.78 106.439Z" fill="#FFBF5F"/>
<path d="M334.225 106.527C334.585 106.287 334.563 106.243 333.168 104.728C332.427 103.91 331.816 103.398 331.369 103.201C330.759 102.929 330.464 103.299 330.704 103.605C332.754 106.243 333.604 106.941 334.225 106.527Z" fill="#FFBF5F"/>
<path d="M343.928 110.081C343.263 109.884 339.862 108.805 339.611 108.707C339.491 108.663 339.404 108.445 339.36 108.075C339 105.305 338.433 102.46 338.183 102.144C337.997 101.904 337.365 101.98 337.191 102.253C337.016 102.525 336.209 105.284 335.73 107.29L335.414 108.598C329.221 110.56 328.883 110.517 331.685 111.378L334.16 112.141C335.566 112.577 335.599 112.588 335.675 112.937C335.784 113.438 336.493 115.88 336.765 117.047C337.343 119.554 338.521 118.006 339.556 113.34L339.796 112.272C339.927 112.25 340.755 112.174 344.331 111.4C345.149 111.214 344.909 110.364 343.928 110.081ZM342.38 110.615C342.293 110.691 339.905 111.269 339.436 111.269C338.869 111.269 338.739 111.541 338.095 114.103C337.67 115.793 337.638 115.826 337.398 114.845C337.103 113.613 336.504 112.174 336.427 111.836C336.362 111.531 335.751 111.312 333.386 110.746C332.197 110.462 332.012 110.364 332.459 110.233C333.015 110.07 335.686 109.197 335.991 109.197C336.286 109.197 336.536 108.979 336.624 108.652L337.474 105.338C337.627 104.76 337.627 104.76 338.052 107.017C338.542 109.557 338.488 109.448 339.273 109.612C340.254 109.819 342.478 110.528 342.38 110.615Z" fill="#FFBF5F"/>
<path d="M340.396 113.515C340.396 113.754 343.274 116.665 343.677 116.829C344.528 117.178 344.746 116.72 344.07 115.989C342.249 113.994 340.396 112.751 340.396 113.515Z" fill="#FFBF5F"/>
<path d="M332.001 114.212C329.908 115.63 329.668 115.957 330.715 115.957C331.227 115.957 334.465 113.711 334.367 113.417C334.214 112.959 333.484 113.199 332.001 114.212Z" fill="#FFBF5F"/>
</svg>
