<svg xmlns="http://www.w3.org/2000/svg" xmlns:xlink="http://www.w3.org/1999/xlink" width="24" height="24" viewBox="0 0 24 24"><defs><linearGradient id="a" x1="-3.869" y1="12.192" x2="-3.869" y2="12.191" gradientUnits="objectBoundingBox"><stop offset="0" stop-color="#2aabee"/><stop offset="1" stop-color="#229ed9"/></linearGradient></defs><circle cx="12" cy="12" r="12" fill="url(#a)"/><path d="M97.664,158.762q5.247-2.286,7-3.014c3.333-1.386,4.025-1.627,4.476-1.635a.789.789,0,0,1,.465.14.95.95,0,0,1,.191.8c-.181,1.9-.962,6.5-1.36,8.627-.168.9-.5,1.2-.82,1.23-.7.064-1.226-.461-1.9-.9-1.056-.692-1.653-1.123-2.678-1.8-1.185-.781-.417-1.21.258-1.911.177-.184,3.247-2.976,3.307-3.23a.245.245,0,0,0-.056-.212.277.277,0,0,0-.248-.024q-.159.036-5.062,3.346a2.278,2.278,0,0,1-1.3.481,8.563,8.563,0,0,1-1.865-.441c-.752-.244-1.349-.373-1.3-.788Q96.811,159.1,97.664,158.762Z" transform="translate(-92.232 -146.888)" fill="#fff" fill-rule="evenodd"/></svg>