<svg xmlns="http://www.w3.org/2000/svg" width="24" height="24" viewBox="0 0 24 24"><circle cx="12" cy="12" r="12" fill="#03a9f4"/><path d="M42.342,37.489a6.632,6.632,0,0,1-1.836.5,3.167,3.167,0,0,0,1.4-1.762A6.366,6.366,0,0,1,39.886,37a3.186,3.186,0,0,0-5.514,2.179,3.3,3.3,0,0,0,.074.726,9.025,9.025,0,0,1-6.57-3.333,3.189,3.189,0,0,0,.981,4.263,3.145,3.145,0,0,1-1.44-.393v.035a3.2,3.2,0,0,0,2.553,3.129,3.178,3.178,0,0,1-.835.1,2.842,2.842,0,0,1-.6-.054,3.219,3.219,0,0,0,2.979,2.22,6.409,6.409,0,0,1-3.947,1.359,5.756,5.756,0,0,1-.763-.044,9.076,9.076,0,0,0,13.967-7.639c0-.141,0-.276-.011-.412A6.341,6.341,0,0,0,42.342,37.489Z" transform="translate(-22.568 -30.309)" fill="#fff"/></svg>